<svg xmlns="http://www.w3.org/2000/svg" width="30.481" height="30.48" viewBox="0 0 30.481 30.48">
  <g id="Group_112" data-name="Group 112" transform="translate(-102.006 -759.172)">
    <path id="Path_250" data-name="Path 250" d="M132.487,774.426a15.206,15.206,0,0,0-15.16-15.254h-.018a15.179,15.179,0,0,0-15.3,15.181v.008a15.186,15.186,0,0,0,15.2,15.291h.008a15.19,15.19,0,0,0,15.272-15.221h0v0ZM117.243,787.8h-.008a13.462,13.462,0,0,1-13.382-13.389v-.033a13.455,13.455,0,0,1,13.356-13.363h.04a13.46,13.46,0,0,1,13.389,13.375v.016a13.484,13.484,0,0,1-13.4,13.395Z" fill="#004067"/>
    <path id="Path_251" data-name="Path 251" d="M131.225,792.933a1.838,1.838,0,0,1-1.085-1.881q0-2,0-3.993h0q0-2.121,0-4.242c0-.377.011-.752-.525-.75-1.053,0-2.112-.052-3.158.039a1.185,1.185,0,0,0-.861.7,1.148,1.148,0,0,0,.515.971,1.853,1.853,0,0,1,1.1,1.871q0,2.7,0,5.407a1.845,1.845,0,0,1-1.089,1.878,1.137,1.137,0,0,0-.531.957,1.281,1.281,0,0,0,.926.725,38.763,38.763,0,0,0,4.321,0,1.276,1.276,0,0,0,.921-.73A1.138,1.138,0,0,0,131.225,792.933Z" transform="translate(-11.433 -11.097)" fill="#004067"/>
    <path id="Path_252" data-name="Path 252" d="M129.542,774.5a1.676,1.676,0,0,0,1.723-1.717,1.741,1.741,0,0,0-1.7-1.77,1.8,1.8,0,0,0-1.8,1.784A1.767,1.767,0,0,0,129.542,774.5Z" transform="translate(-12.494 -5.74)" fill="#004067"/>
  </g>
</svg>
