<svg id="Group_188" data-name="Group 188" xmlns="http://www.w3.org/2000/svg" width="19.333" height="19.331" viewBox="0 0 19.333 19.331">
  <path id="Path_280" data-name="Path 280" d="M156.424,633.217v14.364a1.257,1.257,0,0,0-.034.145,1.6,1.6,0,0,1-1.243,1.386c-.091.021-.182.038-.273.057H138.623c-.092-.019-.183-.036-.274-.058a1.63,1.63,0,0,1-1.258-1.7q0-7.011,0-14.023a2.178,2.178,0,0,1,.045-.487,1.6,1.6,0,0,1,1.625-1.256c.775,0,1.549,0,2.324,0h.228c0-.183,0-.334,0-.484a7.836,7.836,0,0,1,.018-.811.577.577,0,0,1,.625-.506.588.588,0,0,1,.558.581c0,.113,0,.227,0,.34,0,.288,0,.576,0,.87h3.62c0-.071.008-.132.008-.194,0-.34-.006-.681,0-1.02a.6.6,0,0,1,1.184-.106,1.421,1.421,0,0,1,.015.282c0,.344,0,.688,0,1.036h3.628c0-.079,0-.147,0-.214,0-.34-.005-.681.006-1.02a.575.575,0,0,1,.543-.553.581.581,0,0,1,.623.438,1.615,1.615,0,0,1,.031.355c0,.331,0,.662,0,1.007h.253c.769,0,1.537,0,2.305,0a1.613,1.613,0,0,1,1.624,1.261C156.388,633.008,156.4,633.113,156.424,633.217Zm-15.109-.368h-2.433c-.464,0-.582.117-.582.58V647.3c0,.076,0,.152,0,.227a.391.391,0,0,0,.417.414c.075,0,.151,0,.227,0h15.719c.387,0,.525-.125.525-.475q0-7.048,0-14.1c0-.388-.133-.52-.524-.521h-2.458a.276.276,0,0,0-.025.061c0,.372,0,.744-.007,1.115a.6.6,0,0,1-.608.631.59.59,0,0,1-.593-.642c0-.315-.009-.63,0-.945.007-.169-.038-.226-.217-.225-1.071.009-2.141,0-3.212,0h-.2c0,.415,0,.8,0,1.194a.6.6,0,1,1-1.2.011c-.005-.395,0-.789,0-1.189a1,1,0,0,0-.114-.014c-1.121,0-2.242,0-3.363,0-.132,0-.155.055-.154.17,0,.359.007.718,0,1.077a.594.594,0,0,1-1.169.114,1.337,1.337,0,0,1-.028-.3C141.313,633.563,141.315,633.218,141.315,632.849Z" transform="translate(-137.09 -629.839)" fill="#707070"/>
  <path id="Path_281" data-name="Path 281" d="M148.472,649.3h2.386v1.784h-2.386Z" transform="translate(-144.232 -642.049)" fill="#707070"/>
  <path id="Path_282" data-name="Path 282" d="M159.8,651.085v-1.78h2.39v1.78Z" transform="translate(-151.339 -642.053)" fill="#707070"/>
  <path id="Path_283" data-name="Path 283" d="M173.554,651.09h-2.387V649.3h2.387Z" transform="translate(-158.472 -642.048)" fill="#707070"/>
  <path id="Path_284" data-name="Path 284" d="M148.454,659.193v-1.78h2.39v1.78Z" transform="translate(-144.221 -647.141)" fill="#707070"/>
  <path id="Path_285" data-name="Path 285" d="M159.8,659.192v-1.779h2.391v1.779Z" transform="translate(-151.339 -647.141)" fill="#707070"/>
  <path id="Path_286" data-name="Path 286" d="M173.553,657.417V659.2h-2.39v-1.783Z" transform="translate(-158.47 -647.143)" fill="#707070"/>
  <path id="Path_287" data-name="Path 287" d="M148.453,667.306v-1.785h2.39v1.785Z" transform="translate(-144.22 -652.228)" fill="#707070"/>
  <path id="Path_288" data-name="Path 288" d="M159.8,667.309V665.53h2.393v1.779Z" transform="translate(-151.34 -652.234)" fill="#707070"/>
  <path id="Path_289" data-name="Path 289" d="M173.553,665.523v1.783h-2.39v-1.783Z" transform="translate(-158.47 -652.229)" fill="#707070"/>
</svg>
