<svg id="Group_196" data-name="Group 196" xmlns="http://www.w3.org/2000/svg" width="83.228" height="74.626" viewBox="0 0 83.228 74.626">
  <path id="Path_290" data-name="Path 290" d="M354.656,429.483a5.043,5.043,0,0,1-1.516.929c-1.094.2-1.869-.654-1.872-1.9q-.01-7.157,0-14.313c0-1.03.008-2.061,0-3.09-.014-1.2-.451-1.659-1.654-1.743-.3-.022-.6-.011-.9-.011-6.776,0-13.554-.011-20.332.016a1.149,1.149,0,0,1-1.222-.772c-.854-1.812-1.8-3.579-2.658-5.387a1.159,1.159,0,0,0-1.224-.784q-10.288.038-20.577,0a1.049,1.049,0,0,0-1.121.68c-.88,1.858-1.843,3.677-2.729,5.532a1.107,1.107,0,0,1-1.172.727c-6.641-.024-13.283-.016-19.926-.016-.324,0-.649-.008-.975,0-1.386.046-1.846.508-1.846,1.889q-.007,7.4,0,14.8,0,15.737,0,31.473c0,1.8.378,2.182,2.207,2.182q15.818,0,31.637,0c.245,0,.489-.008.732,0a1.717,1.717,0,1,1-.03,3.433c-1.329.016-2.658,0-3.985,0-9.461,0-18.924-.067-28.384.04a5.83,5.83,0,0,1-5.676-5.662c.051-14.5.022-29.008.022-43.511,0-.867-.008-1.735,0-2.6a5.468,5.468,0,0,1,5.533-5.5c1.567,0,3.136,0,4.782,0v-1.7h6.921l.089,1.7c1.6,0,3.161.01,4.725,0,.943-.008,2.075.257,2.777-.168.668-.4.9-1.546,1.31-2.367.646-1.281,1.3-2.558,1.92-3.852a.884.884,0,0,1,.927-.586q12.565.021,25.13,0a.944.944,0,0,1,.975.638c.924,1.9,1.905,3.769,2.817,5.674a1.041,1.041,0,0,0,1.11.678c6.181-.021,12.362-.013,18.543-.011a5.536,5.536,0,0,1,5.46,3.7,3.578,3.578,0,0,0,.186.352Z" transform="translate(-271.428 -398.932)" fill="#bfbebe"/>
  <path id="Path_291" data-name="Path 291" d="M339.261,442.323c-.159.819-.3,1.642-.476,2.456a21.136,21.136,0,0,1-21.595,16.542c-9.188-.453-17.606-8.039-19.248-17.151-2.072-11.5,6.194-22.5,17.552-24.241,10.828-1.662,21.618,6.224,23.438,17.073.1.583.218,1.161.329,1.742Zm-3.455-1.773A17.366,17.366,0,1,0,318.424,457.9,17.129,17.129,0,0,0,335.806,440.55Z" transform="translate(-256.033 -386.721)" fill="#bfbebe"/>
  <path id="Path_292" data-name="Path 292" d="M306.205,410.029c-9.753.049-17.551,6.613-19.086,15.939A18.928,18.928,0,0,0,302.487,447.9c1.275.24,1.9,1.018,1.691,2.112-.187.991-1.032,1.51-2.255,1.283a22.954,22.954,0,0,1-18.508-21.92,22.548,22.548,0,0,1,44.272-6.257c.422,1.546-.437,2.712-1.856,2.5a1.79,1.79,0,0,1-1.475-1.524,19.051,19.051,0,0,0-5.44-9.074A18.582,18.582,0,0,0,306.205,410.029Z" transform="translate(-264.385 -394.415)" fill="#bfbebe"/>
  <path id="Path_293" data-name="Path 293" d="M287.753,426.346c.451-6.379,3.5-11.236,9.418-13.964,5.765-2.656,11.208-1.519,16.146,2.283a14.371,14.371,0,0,1,4.442,5.816,1.74,1.74,0,1,1-3.164,1.369c-2.261-4.993-6.354-7.585-11.692-7.405A12,12,0,0,0,291.31,427.53a11.658,11.658,0,0,0,8.8,10.744c1.056.316,1.532.846,1.546,1.721a1.6,1.6,0,0,1-1.175,1.653,2.282,2.282,0,0,1-1.105,0,16.037,16.037,0,0,1-11.4-12.9C287.888,428,287.837,427.238,287.753,426.346Z" transform="translate(-261.833 -391.878)" fill="#bfbebe"/>
  <path id="Path_294" data-name="Path 294" d="M318.787,407.705a2.538,2.538,0,0,1,2.6,2.547,2.6,2.6,0,0,1-2.609,2.642,2.664,2.664,0,0,1-2.582-2.615A2.6,2.6,0,0,1,318.787,407.705Z" transform="translate(-245.119 -393.776)" fill="#bfbebe"/>
  <path id="Path_295" data-name="Path 295" d="M316.752,435.347H323.1c.516,0,1.03-.011,1.545,0a1.749,1.749,0,1,1,.017,3.487c-2.275.019-4.55.006-6.827.006h-1.08v.919c0,2.3.008,4.606,0,6.908a1.758,1.758,0,1,1-3.49-.021c-.01-2.277,0-4.552,0-6.827v-.98h-.94c-2.329,0-4.66.014-6.989-.006a1.744,1.744,0,1,1-.1-3.485c.243-.016.487-.006.732-.006q3.21,0,6.421,0c.262,0,.526-.024.878-.04V432.76c0-1.761-.014-3.523,0-5.282a1.753,1.753,0,1,1,3.488.022C316.761,430.072,316.752,432.643,316.752,435.347Z" transform="translate(-252.597 -383.282)" fill="#bfbebe"/>
</svg>
