<svg xmlns="http://www.w3.org/2000/svg" width="31.479" height="31.481" viewBox="0 0 31.479 31.481">
  <g id="Group_57" data-name="Group 57" transform="translate(128.639 211.313)">
    <path id="Path_109" data-name="Path 109" d="M-102.1-207.4a16.476,16.476,0,0,0-10.8-3.911,16.708,16.708,0,0,0-8.5,2.277,14.161,14.161,0,0,0-7.239,12.112,13.536,13.536,0,0,0,3.219,8.679,1.562,1.562,0,0,1,.385,1.024,1.964,1.964,0,0,1-.113.636,12.281,12.281,0,0,1-.982,2.171c-.416.718-.969,1.388-1.473,2.117a1.736,1.736,0,0,0-.332.982,1.313,1.313,0,0,0,.307.852,1.643,1.643,0,0,0,.838.511,3.182,3.182,0,0,0,.831.119,2.045,2.045,0,0,0,.584-.079,26.249,26.249,0,0,0,3.669-1.289c1.177-.557,2.2-1.341,3.282-1.949a1.1,1.1,0,0,1,.51-.11,1.371,1.371,0,0,1,.228.019c1.579.271,3.152.586,3.957.739l.032.006h.032A18.009,18.009,0,0,0-104-185.046a13.926,13.926,0,0,0,6.842-11.847A13.887,13.887,0,0,0-102.1-207.4ZM-123.166-186.5a3.487,3.487,0,0,0,.1-.834,3,3,0,0,0-.729-1.975,11.647,11.647,0,0,1-2.891-7.6A12.3,12.3,0,0,1-119.6-207.8a14.868,14.868,0,0,1,6.692-1.575,14.223,14.223,0,0,1,11.622,5.73,11.53,11.53,0,0,1,2.174,6.711,12.049,12.049,0,0,1-6.1,10.338,14.531,14.531,0,0,1-7.515,2.13,16.082,16.082,0,0,1-4.78-.758,2.166,2.166,0,0,0-.646-.108,1.878,1.878,0,0,0-.992.3c-1.486.895-2.973,1.782-4.5,2.566a9.68,9.68,0,0,1-1.82.617c.475-.72.975-1.443,1.388-2.231A10.845,10.845,0,0,0-123.166-186.5Z" fill="#004067"/>
    <path id="Path_110" data-name="Path 110" d="M-45.624-165.437v0h0Z" transform="translate(-56.914 -31.452)" fill="#004067"/>
    <path id="Path_111" data-name="Path 111" d="M-77.5-165.654h0Z" transform="translate(-35.062 -31.303)" fill="#004067"/>
    <path id="Path_112" data-name="Path 112" d="M-58.427-171.685h0Z" transform="translate(-48.136 -27.168)" fill="#004067"/>
    <path id="Path_113" data-name="Path 113" d="M-77.3-165.057a.926.926,0,0,0-.239.274.8.8,0,0,0-.1.392,1.134,1.134,0,0,0,.067.369,1.014,1.014,0,0,0,.338.5.824.824,0,0,0,.5.161,1.659,1.659,0,0,0,.7-.192c1.038-.5,2.056-1.033,3.068-1.549.743.463,1.526.963,2.329,1.438a1.6,1.6,0,0,0,.788.264.837.837,0,0,0,.456-.13,1.05,1.05,0,0,0,.352-.4,1.039,1.039,0,0,0,.139-.494.776.776,0,0,0-.088-.361,1.11,1.11,0,0,0-.323-.364,3.5,3.5,0,0,0-.369-.236c-.613-.354-1.212-.728-1.738-1.051l2.483-4.335.158,0a1.578,1.578,0,0,0,.754-.146.812.812,0,0,0,.324-.318,1.047,1.047,0,0,0,.123-.49h0v-.042a1.046,1.046,0,0,0-.122-.523.8.8,0,0,0-.249-.27,1.106,1.106,0,0,0-.455-.166,2.864,2.864,0,0,0-.439-.026h-.19c-.381,0-.762,0-1.148,0h-1.386q0-.1,0-.214c0-.144,0-.293-.006-.415,0-.062-.005-.117-.009-.164l-.007-.068a.524.524,0,0,0-.017-.082,1.5,1.5,0,0,0-.377-.647.9.9,0,0,0-.625-.273.808.808,0,0,0-.557.23,1.368,1.368,0,0,0-.347.593,1.8,1.8,0,0,0-.073.549c0,.166.011.33.02.493h-1.55c-.432,0-.855,0-1.278,0h-.025a1.5,1.5,0,0,0-.759.159.813.813,0,0,0-.31.319,1.052,1.052,0,0,0-.115.476v.037a1.069,1.069,0,0,0,.1.482.847.847,0,0,0,.492.42,1.747,1.747,0,0,0,.578.081h.064c.1,0,.2,0,.3,0l.514,0h4.366a8.305,8.305,0,0,1-1.814,2.984c-.441-.562-.852-1.072-1.22-1.6a2.789,2.789,0,0,0-.367-.448,1.063,1.063,0,0,0-.262-.182.8.8,0,0,0-.344-.079.985.985,0,0,0-.523.166,1.093,1.093,0,0,0-.361.347.819.819,0,0,0-.123.434,1.138,1.138,0,0,0,.126.494,2.567,2.567,0,0,0,.247.4c.423.575.87,1.132,1.369,1.767-.769.391-1.522.785-2.289,1.128A2.666,2.666,0,0,0-77.3-165.057Z" transform="translate(-34.963 -25.162)" fill="#004067"/>
    <path id="Path_114" data-name="Path 114" d="M-108.829-179.212a1.1,1.1,0,0,0,.383.075.818.818,0,0,0,.364-.084.957.957,0,0,0,.374-.349,1.875,1.875,0,0,0,.2-.447,13.087,13.087,0,0,1,.589-1.64.529.529,0,0,1,.163-.168.5.5,0,0,1,.2-.092c.269-.02.543-.025.822-.025s.58.006.877.006c.174,0,.349,0,.525-.008h.041a.572.572,0,0,1,.15.016.163.163,0,0,1,.091.056.575.575,0,0,1,.093.2,11.466,11.466,0,0,0,.672,1.867,1.094,1.094,0,0,0,.437.433,1.221,1.221,0,0,0,.575.178h.008a.594.594,0,0,0,.319-.1,1.484,1.484,0,0,0,.28-.25c.072-.08.136-.152.164-.174l.138-.119-.035-.179c-.023-.121-.036-.2-.048-.275a1.306,1.306,0,0,0-.05-.212c-1-2.882-1.988-5.768-3.014-8.642a1.237,1.237,0,0,0-.342-.474,1.252,1.252,0,0,0-.237-.169.661.661,0,0,0-.312-.087l-.051,0a1.107,1.107,0,0,0-.559.262,1.191,1.191,0,0,0-.371.492c-1.013,2.83-1.984,5.673-2.971,8.507a1.61,1.61,0,0,0-.1.523.919.919,0,0,0,.149.519A.954.954,0,0,0-108.829-179.212Zm2.678-4.686.709-2.064.707,2.064Z" transform="translate(-13.156 -14.699)" fill="#004067"/>
  </g>
</svg>
