<svg xmlns="http://www.w3.org/2000/svg" width="29" height="34.233" viewBox="0 0 29 34.233">
  <g id="Group_114" data-name="Group 114" transform="translate(-67.257 -673.148)">
    <path id="Path_253" data-name="Path 253" d="M69.652,699.52c-.914-.359-2.484.326-2.39-1.294.076-1.312,1.385-.862,2.309-1.009v-5.837c-.779-.331-2.36.433-2.314-1.165.041-1.429,1.457-.793,2.334-1.05v-5.787c-.876-.272-2.357.393-2.332-1.136.023-1.445,1.431-.826,2.393-1.083v-5.874c0-2.008.129-2.136,2.15-2.136H94.234c1.826,0,2.023.192,2.023,1.97q0,15.21,0,30.42c0,1.6-.232,1.84-1.832,1.841q-11.471,0-22.943,0c-1.6,0-1.827-.232-1.829-1.841Q69.65,702.525,69.652,699.52Zm2.18-.215v5.9H94.065V675.331H71.831v5.821c.587,0,1.125-.022,1.661.005.666.034,1.127.359,1.111,1.072s-.488,1.015-1.15,1.04c-.53.021-1.061,0-1.59,0v5.973c.628,0,1.172-.006,1.716,0a1.02,1.02,0,1,1-.01,2.04c-.567.01-1.135,0-1.709,0v5.964a6.186,6.186,0,0,1,1.8.043,1.443,1.443,0,0,1,.884.99c.006.333-.5.851-.88.975A6.484,6.484,0,0,1,71.832,699.3Z" fill="#707070"/>
    <path id="Path_254" data-name="Path 254" d="M95.267,703.934c-2.4-2.885-2.473-5.688-.266-7.809a5.234,5.234,0,0,1,7.067-.2c2.321,2,2.327,4.879-.014,8.016a6.729,6.729,0,0,1,3.084,4.819c.19,1.276-.234,1.809-1.506,1.812q-4.962.013-9.923,0c-1.334,0-1.755-.531-1.544-1.866A6.7,6.7,0,0,1,95.267,703.934Zm6.5-4.081a3.119,3.119,0,1,0-6.237-.018,3.119,3.119,0,1,0,6.237.018Zm1.013,8.542a4.27,4.27,0,0,0-8.331,0Z" transform="translate(-14.26 -12.335)" fill="#707070"/>
  </g>
</svg>
