<svg xmlns="http://www.w3.org/2000/svg" width="23.892" height="33.832" viewBox="0 0 23.892 33.832">
  <g id="Group_112" data-name="Group 112" transform="translate(-80.887 -356.792)">
    <path id="Path_248" data-name="Path 248" d="M80.888,375.8q0-5.833,0-11.665c0-2.089,1.1-3.167,3.2-3.168.386,0,.773-.01,1.159,0a2.751,2.751,0,0,0,2.636-1.01,15.548,15.548,0,0,1,2.776-2.4,4.128,4.128,0,0,1,5.86,1.159c.042.064.069.166.127.189a4.254,4.254,0,0,1,2.368,1.978c.047.09.33.077.5.078.8.008,1.6,0,2.395,0a2.714,2.714,0,0,1,2.862,2.934c.009,4.3,0,8.6,0,12.9q0,5.292,0,10.583c0,2.146-1.086,3.238-3.215,3.238q-8.768,0-17.536,0a2.837,2.837,0,0,1-3.136-3.159Q80.884,381.632,80.888,375.8ZM86.812,364a1.25,1.25,0,0,0-1.249-1.2c-.54,0-1.065,0-1.59,0-.956.008-1.237.289-1.24,1.249-.006,2.008,0,4.016,0,6.024q0,8.689,0,17.378c0,.968.273,1.313,1.095,1.314q9.036.011,18.073,0c.759,0,1.049-.329,1.049-1.1q0-6.286,0-12.572,0-3.235,0-6.471a37.731,37.731,0,0,0,.14-3.8c-.18-1.783-.9-2.045-2.587-2.021a1.254,1.254,0,0,0-1.238,1.246v.012A.945.945,0,0,1,98.2,365.11q-5.175.011-10.35,0a.95.95,0,0,1-1.037-1C86.815,364.072,86.813,364.035,86.812,364Zm8.955-.759a1.252,1.252,0,0,0,.448-2.422c-.117-.044-.243-.086-.379-.128a1.581,1.581,0,0,1-.831-.845,1.916,1.916,0,0,0-1.945-1.184,1.691,1.691,0,0,0-1.843,1.173,1.128,1.128,0,0,1-.989.919l-.061.013a1.252,1.252,0,0,0,.279,2.473Z" fill="#aeabab"/>
    <path id="Path_249" data-name="Path 249" d="M116.127,444.656c-2.21,0-4.42.023-6.629-.023a1.517,1.517,0,0,1-1-.524.949.949,0,0,1,.07-.891,1.187,1.187,0,0,1,.851-.385c4.471-.023,8.943-.015,13.414-.017.617,0,1.008.282,1,.9-.008.661-.44.937-1.075.936Q119.442,444.654,116.127,444.656Z" transform="translate(-23.273 -72.731)" fill="#aeabab"/>
    <path id="Path_250" data-name="Path 250" d="M115.726,521.606q3.245,0,6.489,0c.863,0,1.243.292,1.23.915-.012.6-.422.909-1.264.91q-6.451.006-12.9,0c-.862,0-1.35-.351-1.336-.938s.461-.886,1.37-.887Q112.52,521.6,115.726,521.606Z" transform="translate(-22.876 -139.347)" fill="#aeabab"/>
    <path id="Path_251" data-name="Path 251" d="M115.994,484.07q-3.167,0-6.334,0c-.231,0-.528.074-.68-.039-.3-.223-.682-.534-.719-.846-.031-.26.33-.652.614-.838a1.8,1.8,0,0,1,.9-.094q6.218-.007,12.435,0c.206,0,.412,0,.617.015a.836.836,0,0,1,.869.96.823.823,0,0,1-.911.84c-1.055.006-2.111.006-3.167.006Z" transform="translate(-23.143 -106.067)" fill="#aeabab"/>
  </g>
</svg>
