<svg xmlns="http://www.w3.org/2000/svg" width="36.627" height="27.231" viewBox="0 0 36.627 27.231">
  <path id="Path_243" data-name="Path 243" d="M219.666,716.509a6.972,6.972,0,0,0-.462-1.307,23.736,23.736,0,0,0-1.436-2.181c-.892-1.213-1.793-2.426-2.757-3.591a3.359,3.359,0,0,0-2.511-1.384c-.945-.015-1.89-.019-2.837-.019-1.236,0-2.476.007-3.725.008,0-.508,0-1.027,0-1.554,0-.376,0-.755-.008-1.134a2.3,2.3,0,0,0-2.447-2.407H193.481q-3.976,0-7.952-.007h-.006a2.389,2.389,0,0,0-1.858.8,2.554,2.554,0,0,0-.613,1.664v.013q.026,4.785.027,9.571,0,4.473-.028,8.946v.02a2.678,2.678,0,0,0,.715,1.864,2.449,2.449,0,0,0,1.8.76c.044,0,.088,0,.133,0,.338-.017.678-.022,1.019-.022.5,0,1.007.01,1.512.012.017.053.032.1.044.141a4.685,4.685,0,0,0,1.22,2.163,4.9,4.9,0,0,0,2.171,1.2h0c.084.023.175.058.279.093l.034.012h1.433l.034-.011c.1-.035.2-.07.28-.093h0a4.884,4.884,0,0,0,2.169-1.193,4.691,4.691,0,0,0,1.222-2.158c.012-.047.029-.1.047-.149h4.763c.293,0,.583-.007.869-.007.175,0,.347,0,.519.011.054,0,.108,0,.162,0a2.512,2.512,0,0,0,1.556-.513,2.667,2.667,0,0,0,1.716.514c.094,0,.188-.006.282-.01.028.1.054.207.087.311a4.571,4.571,0,0,0,3.393,3.2c.06.015.136.049.232.084l.036.013h1.433l.032-.01c.218-.068.447-.13.677-.213a4.528,4.528,0,0,0,3-3.214c.016-.058.035-.119.056-.186.276.022.553.04.826.04a3.464,3.464,0,0,0,1.674-.35,2.6,2.6,0,0,0,1.19-1.495l.013-.036v-8.156Zm-3.7,8.144a4.56,4.56,0,0,0-8.833-.37,1.57,1.57,0,0,1-.136.371l-.012.01a.339.339,0,0,1-.1.01c-.077,0-.194-.01-.35-.023a.681.681,0,0,1-.406-.163.577.577,0,0,1-.183-.361.962.962,0,0,1-.007-.132c0-.036,0-.075,0-.117q0-3.779,0-7.557,0-2.8,0-5.6a.819.819,0,0,1,.191-.609.839.839,0,0,1,.616-.189h.028c.985,0,1.973.014,2.962.014.672,0,1.344-.006,2.018-.028h.08a2.106,2.106,0,0,1,1.237.389,4.606,4.606,0,0,1,.7.62H212.15c-.411,0-.816,0-1.222,0a2.41,2.41,0,0,0-2.564,2.573q0,.679,0,1.359,0,.6,0,1.2a2.552,2.552,0,0,0,.726,1.832,2.588,2.588,0,0,0,1.848.719q1.361,0,2.721,0l3.84,0h.287v2.964q0,1.146,0,2.291a.822.822,0,0,1-.191.6.8.8,0,0,1-.589.2h-1.039Zm-.709-11.81c.684.956,1.37,1.908,2,2.889a4.3,4.3,0,0,1,.378.953H211.01a.752.752,0,0,1-.547-.163.718.718,0,0,1-.167-.535q0-.654,0-1.308,0-.6,0-1.207a.682.682,0,0,1,.162-.5.69.69,0,0,1,.505-.161l1.733,0q1.19,0,2.38.006a.625.625,0,0,1,.143.018Zm-6.409,12.745a2.606,2.606,0,0,1,2.666-2.635h.017a2.627,2.627,0,0,1,2.623,2.637v.027a2.663,2.663,0,0,1-2.654,2.655H211.5a2.647,2.647,0,0,1-2.645-2.671v-.013h0Zm-18.808.011a2.61,2.61,0,0,1,2.662-2.646h.012a2.617,2.617,0,0,1,2.629,2.646v.008a2.655,2.655,0,0,1-2.64,2.665h-.024a2.65,2.65,0,0,1-2.64-2.669v0h0Zm7.265-.941H197.3c-.1,0-.129-.017-.135-.022s-.029-.026-.056-.121a4.573,4.573,0,0,0-4.407-3.492h-.022a4.588,4.588,0,0,0-4.419,3.508,1.243,1.243,0,0,1-.041.12c-.5,0-1.006,0-1.507,0-.391,0-.782,0-1.173-.01a.561.561,0,0,1-.4-.191.717.717,0,0,1-.189-.445l0-.083c0-.045,0-.094,0-.146v-18.2a2.216,2.216,0,0,1,.031-.43.4.4,0,0,1,.056-.148.246.246,0,0,1,.158-.094,1.913,1.913,0,0,1,.461-.039h17.719a1.665,1.665,0,0,1,.378.032c.133.036.163.065.2.136a1.126,1.126,0,0,1,.069.478v18.519a1.48,1.48,0,0,1-.032.349.267.267,0,0,1-.134.2.991.991,0,0,1-.44.069H200.5q-1.6,0-3.191.005Z" transform="translate(-183.051 -702.933)" fill="#004067"/>
</svg>
