<svg xmlns="http://www.w3.org/2000/svg" width="32.609" height="33.602" viewBox="0 0 32.609 33.602">
  <g id="Group_108" data-name="Group 108" transform="translate(-245.078 -382.232)">
    <path id="Path_242" data-name="Path 242" d="M248.493,399.658c-.407,0-.743.007-1.079,0a2.247,2.247,0,0,1-2.172-1.443,2.176,2.176,0,0,1,.6-2.485q6.432-6.27,12.871-12.534a3.493,3.493,0,0,1,4.763-.048q6.728,6.27,13.432,12.565a2.163,2.163,0,0,1,.626,2.476,2.246,2.246,0,0,1-2.155,1.468c-.338.011-.676,0-1.1,0v.641q0,5.882,0,11.763a3.555,3.555,0,0,1-3.792,3.769q-2.513,0-5.026,0a1.353,1.353,0,0,1-1.535-1.547c0-2.6,0-5.2,0-7.807,0-.87-.151-1.016-1.032-1.017q-1.577,0-3.155,0c-.7,0-.874.177-.874.892q0,3.93,0,7.86c0,1.121-.5,1.617-1.638,1.618-1.711,0-3.422,0-5.133,0a3.511,3.511,0,0,1-3.589-3.584q-.012-5.935,0-11.87Zm8.967,14.25v-.647q0-3.77,0-7.54a1.358,1.358,0,0,1,1.547-1.537c1.515-.005,3.03,0,4.545,0,1.235,0,1.683.441,1.685,1.666q0,3.69,0,7.379v.689h.634q2.246,0,4.492,0c1.379,0,1.976-.6,1.976-1.99q0-6.764,0-13.529v-.693h.631c.766,0,1.533.011,2.3-.012a.6.6,0,0,0,.427-.227c.045-.067-.08-.283-.17-.4a3.871,3.871,0,0,0-.424-.406q-6.33-5.913-12.66-11.827a1.653,1.653,0,0,0-2.647,0l-8.89,8.652c-1.188,1.156-2.379,2.309-3.557,3.475a2.2,2.2,0,0,0-.3.522,2.261,2.261,0,0,0,.613.205c.73.026,1.461.007,2.192.013.169,0,.337.028.543.046v.69q0,6.711,0,13.422a5.765,5.765,0,0,0,.017.641,1.552,1.552,0,0,0,1.406,1.39C253.676,413.928,255.528,413.908,257.461,413.908Z" transform="translate(0)" fill="#707070"/>
  </g>
</svg>
