<svg xmlns="http://www.w3.org/2000/svg" width="19" height="27.666" viewBox="0 0 19 27.666">
  <g id="Group_151" data-name="Group 151" transform="translate(-232.684 -598.336)">
    <path id="Path_264" data-name="Path 264" d="M251.684,607.813a13.614,13.614,0,0,1-1.466,5.68,69.574,69.574,0,0,1-5.876,9.972c-.488.731-.98,1.46-1.509,2.161a.73.73,0,0,1-1.279,0c-3.084-4.484-6.281-8.911-8.159-14.087a9.516,9.516,0,0,1,15.371-10.522A9.4,9.4,0,0,1,251.684,607.813ZM242.19,623.5c2.462-3.661,4.964-7.189,6.621-11.2a14.955,14.955,0,0,0,1.082-3.924,7.58,7.58,0,0,0-4.845-7.782,7.811,7.811,0,0,0-10.019,10.354C236.687,615.513,239.47,619.436,242.19,623.5Z" fill="#004067"/>
    <path id="Path_265" data-name="Path 265" d="M243.907,613.689a4.313,4.313,0,0,1,4.253-4.369,4.374,4.374,0,1,1,.049,8.746A4.292,4.292,0,0,1,243.907,613.689Zm4.315-2.628a2.624,2.624,0,0,0-2.634,2.642,2.64,2.64,0,1,0,5.28-.014A2.622,2.622,0,0,0,248.222,611.061Z" transform="translate(-6.035 -5.912)" fill="#004067"/>
  </g>
</svg>
