<svg xmlns="http://www.w3.org/2000/svg" xmlns:xlink="http://www.w3.org/1999/xlink" width="296.613" height="81.385" viewBox="0 0 296.613 81.385">
  <defs>
    <linearGradient id="linear-gradient" x1="0.5" y1="0.941" x2="0.5" y2="0.26" gradientUnits="objectBoundingBox">
      <stop offset="0" stop-color="#004067"/>
      <stop offset="0.23" stop-color="#005384"/>
      <stop offset="0.559" stop-color="#006aa7"/>
      <stop offset="0.828" stop-color="#0078bd"/>
      <stop offset="1" stop-color="#007ec6"/>
    </linearGradient>
  </defs>
  <g id="Group_6" data-name="Group 6" transform="translate(-64.973 -215.16)">
    <g id="Group_3" data-name="Group 3" transform="translate(199.796 231.97)">
      <g id="Group_1" data-name="Group 1" transform="translate(0.341 54.646)">
        <path id="Path_1" data-name="Path 1" d="M239.606,317.108v-9.539h3.475a5.22,5.22,0,0,1,2.054.375,4.126,4.126,0,0,1,2.365,2.533,5.694,5.694,0,0,1,.3,1.847,5.57,5.57,0,0,1-.33,1.968,4.214,4.214,0,0,1-.95,1.5,4.282,4.282,0,0,1-1.488.967,5.272,5.272,0,0,1-1.947.343Zm6.317-4.783a4.031,4.031,0,0,0-.189-1.262,2.821,2.821,0,0,0-.552-.995,2.463,2.463,0,0,0-.9-.645,3.023,3.023,0,0,0-1.205-.228h-1.617v6.288h1.617a2.922,2.922,0,0,0,1.219-.242,2.5,2.5,0,0,0,.889-.665,2.962,2.962,0,0,0,.545-1A3.994,3.994,0,0,0,245.923,312.324Z" transform="translate(-239.606 -307.502)" fill="#007ec6"/>
        <path id="Path_2" data-name="Path 2" d="M258.708,315.482v1.625h-6.641v-9.539h6.52v1.625h-4.661v2.3h4.028V313h-4.028v2.486Z" transform="translate(-242.422 -307.502)" fill="#007ec6"/>
        <path id="Path_3" data-name="Path 3" d="M262.527,317.108v-9.539h1.859v7.913h4.877v1.625Z" transform="translate(-244.786 -307.502)" fill="#007ec6"/>
        <path id="Path_4" data-name="Path 4" d="M272.692,317.108v-9.539h1.859v9.539Z" transform="translate(-247.084 -307.502)" fill="#007ec6"/>
        <path id="Path_5" data-name="Path 5" d="M278.37,307.569l2.587,7.214,2.56-7.214h1.953l-3.731,9.539h-1.563l-3.758-9.539Z" transform="translate(-247.926 -307.502)" fill="#007ec6"/>
        <path id="Path_6" data-name="Path 6" d="M296.076,315.482v1.625h-6.641v-9.539h6.519v1.625h-4.66v2.3h4.028V313h-4.028v2.486Z" transform="translate(-250.868 -307.502)" fill="#007ec6"/>
        <path id="Path_7" data-name="Path 7" d="M299.9,317.108v-9.539h4.23a2.721,2.721,0,0,1,1.219.275,3.156,3.156,0,0,1,.964.726,3.426,3.426,0,0,1,.633,1.021,3.069,3.069,0,0,1,.229,1.149,3.164,3.164,0,0,1-.465,1.686,2.66,2.66,0,0,1-1.259,1.1l2.183,3.587H305.54l-1.954-3.2h-1.832v3.2Zm1.859-4.823h2.331a.989.989,0,0,0,.478-.121,1.225,1.225,0,0,0,.384-.329,1.648,1.648,0,0,0,.255-.491,1.9,1.9,0,0,0,.094-.6,1.721,1.721,0,0,0-.108-.618,1.619,1.619,0,0,0-.289-.49,1.326,1.326,0,0,0-.418-.323,1.089,1.089,0,0,0-.478-.114h-2.25Z" transform="translate(-253.232 -307.502)" fill="#007ec6"/>
        <path id="Path_8" data-name="Path 8" d="M311.871,307.569l2.358,4.594,2.4-4.594h2.008l-3.476,6.207v3.332h-1.845v-3.358l-3.462-6.18Z" transform="translate(-255.482 -307.502)" fill="#007ec6"/>
        <path id="Path_9" data-name="Path 9" d="M326.142,317.108v-9.539h6.426v1.625H328v2.459h3.8v1.5H328v3.95Z" transform="translate(-259.164 -307.502)" fill="#007ec6"/>
        <path id="Path_10" data-name="Path 10" d="M339.766,317.155a4.352,4.352,0,0,1-1.906-.41,4.652,4.652,0,0,1-1.468-1.088,5.029,5.029,0,0,1-1.286-3.338,4.777,4.777,0,0,1,.357-1.827,5.045,5.045,0,0,1,.983-1.545,4.692,4.692,0,0,1,1.488-1.068,4.438,4.438,0,0,1,1.873-.4,4.214,4.214,0,0,1,1.892.423,4.734,4.734,0,0,1,1.462,1.108,5.111,5.111,0,0,1,.943,1.559,4.895,4.895,0,0,1,.337,1.774,4.819,4.819,0,0,1-.35,1.82,4.944,4.944,0,0,1-.97,1.532,4.68,4.68,0,0,1-1.482,1.062A4.434,4.434,0,0,1,339.766,317.155Zm-2.776-4.837a3.843,3.843,0,0,0,.189,1.2,3.21,3.21,0,0,0,.546,1.021,2.717,2.717,0,0,0,.875.712,2.532,2.532,0,0,0,1.179.268,2.5,2.5,0,0,0,1.192-.276,2.709,2.709,0,0,0,.876-.732,3.271,3.271,0,0,0,.539-1.028,3.818,3.818,0,0,0,.182-1.162,3.739,3.739,0,0,0-.2-1.2,3.315,3.315,0,0,0-.553-1.022,2.655,2.655,0,0,0-.875-.705,2.741,2.741,0,0,0-2.365.013,2.661,2.661,0,0,0-.875.726,3.259,3.259,0,0,0-.532,1.021A3.8,3.8,0,0,0,336.99,312.319Z" transform="translate(-261.19 -307.482)" fill="#007ec6"/>
        <path id="Path_11" data-name="Path 11" d="M349.011,317.108v-9.539h4.23a2.719,2.719,0,0,1,1.219.275,3.156,3.156,0,0,1,.964.726,3.425,3.425,0,0,1,.633,1.021,3.069,3.069,0,0,1,.229,1.149,3.164,3.164,0,0,1-.465,1.686,2.66,2.66,0,0,1-1.259,1.1l2.183,3.587h-2.088l-1.954-3.2H350.87v3.2Zm1.859-4.823h2.33a.989.989,0,0,0,.478-.121,1.215,1.215,0,0,0,.384-.329,1.647,1.647,0,0,0,.256-.491,1.9,1.9,0,0,0,.094-.6,1.722,1.722,0,0,0-.108-.618,1.6,1.6,0,0,0-.289-.49,1.325,1.325,0,0,0-.418-.323,1.087,1.087,0,0,0-.478-.114h-2.25Z" transform="translate(-264.333 -307.502)" fill="#007ec6"/>
        <path id="Path_12" data-name="Path 12" d="M364.763,317.108v-9.539h3.476a5.219,5.219,0,0,1,2.054.375,4.127,4.127,0,0,1,2.365,2.533,5.7,5.7,0,0,1,.3,1.847,5.571,5.571,0,0,1-.33,1.968,4.206,4.206,0,0,1-.951,1.5,4.268,4.268,0,0,1-1.488.967,5.266,5.266,0,0,1-1.946.343Zm6.318-4.783a4.057,4.057,0,0,0-.189-1.262,2.832,2.832,0,0,0-.552-.995,2.47,2.47,0,0,0-.9-.645,3.026,3.026,0,0,0-1.205-.228h-1.617v6.288h1.617a2.918,2.918,0,0,0,1.218-.242,2.48,2.48,0,0,0,.889-.665,2.963,2.963,0,0,0,.546-1A4.02,4.02,0,0,0,371.081,312.324Z" transform="translate(-267.893 -307.502)" fill="#007ec6"/>
        <path id="Path_13" data-name="Path 13" d="M383.866,315.482v1.625h-6.641v-9.539h6.52v1.625h-4.662v2.3h4.028V313h-4.028v2.486Z" transform="translate(-270.709 -307.502)" fill="#007ec6"/>
        <path id="Path_14" data-name="Path 14" d="M389.544,310.995v6.113h-1.859v-9.539h1.441l4.984,6.26v-6.247h1.86v9.525h-1.509Z" transform="translate(-273.073 -307.502)" fill="#007ec6"/>
        <path id="Path_15" data-name="Path 15" d="M407.881,309.194h-3.058v7.913h-1.845v-7.913H399.92v-1.625h7.961Z" transform="translate(-275.839 -307.502)" fill="#007ec6"/>
        <path id="Path_16" data-name="Path 16" d="M411.738,317.108v-9.539H413.6v9.539Z" transform="translate(-278.51 -307.502)" fill="#007ec6"/>
        <path id="Path_17" data-name="Path 17" d="M422.209,310.048a2.274,2.274,0,0,0-.344-.255,4.192,4.192,0,0,0-.606-.316,5.378,5.378,0,0,0-.775-.262,3.375,3.375,0,0,0-.849-.108,1.9,1.9,0,0,0-1.145.282.932.932,0,0,0-.377.793.81.81,0,0,0,.142.49,1.209,1.209,0,0,0,.41.343,3.5,3.5,0,0,0,.68.269c.274.081.591.166.951.255q.7.188,1.272.4a3.439,3.439,0,0,1,.97.537,2.228,2.228,0,0,1,.614.772,2.563,2.563,0,0,1,.215,1.108,2.759,2.759,0,0,1-.29,1.31,2.438,2.438,0,0,1-.782.88,3.383,3.383,0,0,1-1.132.49,5.7,5.7,0,0,1-1.341.155,7.216,7.216,0,0,1-2.128-.323,6.6,6.6,0,0,1-1.886-.913l.823-1.6a2.574,2.574,0,0,0,.437.316,6.557,6.557,0,0,0,.748.389,5.77,5.77,0,0,0,.957.33,4.32,4.32,0,0,0,1.077.134q1.536,0,1.536-.981a.805.805,0,0,0-.174-.524,1.5,1.5,0,0,0-.5-.376,4.782,4.782,0,0,0-.781-.3c-.306-.089-.646-.188-1.024-.3a8.61,8.61,0,0,1-1.192-.409,3.114,3.114,0,0,1-.842-.524,1.953,1.953,0,0,1-.505-.7,2.418,2.418,0,0,1-.169-.947,2.962,2.962,0,0,1,.27-1.29,2.606,2.606,0,0,1,.747-.94,3.418,3.418,0,0,1,1.112-.571,4.622,4.622,0,0,1,1.361-.194,5.292,5.292,0,0,1,1.858.316,6.956,6.956,0,0,1,1.482.745Z" transform="translate(-279.43 -307.482)" fill="#007ec6"/>
        <path id="Path_18" data-name="Path 18" d="M434.214,309.194h-3.058v7.913h-1.845v-7.913h-3.057v-1.625h7.96Z" transform="translate(-281.79 -307.502)" fill="#007ec6"/>
        <path id="Path_19" data-name="Path 19" d="M443.564,310.048a2.3,2.3,0,0,0-.343-.255,4.25,4.25,0,0,0-.607-.316,5.344,5.344,0,0,0-.775-.262,3.374,3.374,0,0,0-.849-.108,1.9,1.9,0,0,0-1.145.282.933.933,0,0,0-.376.793.81.81,0,0,0,.141.49,1.208,1.208,0,0,0,.41.343,3.505,3.505,0,0,0,.68.269c.274.081.591.166.95.255q.7.188,1.272.4a3.438,3.438,0,0,1,.97.537,2.227,2.227,0,0,1,.614.772,2.564,2.564,0,0,1,.215,1.108,2.76,2.76,0,0,1-.289,1.31,2.432,2.432,0,0,1-.782.88,3.384,3.384,0,0,1-1.132.49,5.693,5.693,0,0,1-1.341.155,7.217,7.217,0,0,1-2.128-.323,6.606,6.606,0,0,1-1.886-.913l.823-1.6a2.548,2.548,0,0,0,.438.316,6.465,6.465,0,0,0,.747.389,5.765,5.765,0,0,0,.957.33,4.322,4.322,0,0,0,1.078.134q1.535,0,1.536-.981a.806.806,0,0,0-.175-.524,1.5,1.5,0,0,0-.5-.376,4.784,4.784,0,0,0-.781-.3c-.306-.089-.646-.188-1.024-.3a8.6,8.6,0,0,1-1.192-.409,3.115,3.115,0,0,1-.842-.524,1.955,1.955,0,0,1-.505-.7,2.42,2.42,0,0,1-.168-.947,2.96,2.96,0,0,1,.269-1.29,2.6,2.6,0,0,1,.747-.94,3.417,3.417,0,0,1,1.112-.571,4.622,4.622,0,0,1,1.361-.194,5.292,5.292,0,0,1,1.858.316,6.937,6.937,0,0,1,1.482.745Z" transform="translate(-284.256 -307.482)" fill="#007ec6"/>
      </g>
      <g id="Group_2" data-name="Group 2" transform="translate(0)">
        <path id="Path_20" data-name="Path 20" d="M249.851,246.641a29.035,29.035,0,0,1,.207,3.3v31.211c2.482.412,4.067.687,4.688.824a1.1,1.1,0,0,1,.9,1.238v3.025H239.165v-3.025a1.206,1.206,0,0,1,1.1-1.238l3.861-.824V241.966c-2.206-.413-3.447-.688-3.861-.825a1.206,1.206,0,0,1-1.1-1.238v-3.025h9.928a3.642,3.642,0,0,1,1.378.206,1.833,1.833,0,0,1,.9.894L268.4,268.365a24.488,24.488,0,0,1,1.585,3.575,30.264,30.264,0,0,1,1.586-3.644l16.683-30.317a1.921,1.921,0,0,1,.965-.894,3.642,3.642,0,0,1,1.378-.206h9.927V239.9a1.205,1.205,0,0,1-1.1,1.238l-3.929.825v39.186q3.309.618,3.929.824a1.205,1.205,0,0,1,1.1,1.238v3.025H283.976v-3.025a1.149,1.149,0,0,1,1.035-1.238c.689-.137,2.206-.413,4.619-.824V250.01a26.448,26.448,0,0,1,.138-3.231l-16.96,30.8a2.576,2.576,0,0,1-2.344,1.581H269.5a2.767,2.767,0,0,1-2.482-1.581l-17.235-30.867Z" transform="translate(-239.165 -236.879)" fill="#004067"/>
        <path id="Path_21" data-name="Path 21" d="M369.494,271.773a22.747,22.747,0,0,1-4.964,7.768c-4.48,4.537-10.272,6.737-17.58,6.737H324.13v-2.887a1.271,1.271,0,0,1,1.1-1.307l3.861-.756V242.075c-2.206-.413-3.447-.688-3.861-.826a1.27,1.27,0,0,1-1.1-1.306v-2.888h22.82c7.308,0,13.168,2.2,17.58,6.738,4.482,4.537,6.756,10.519,6.756,17.874A27.772,27.772,0,0,1,369.494,271.773Zm-6.343-18.217a17.36,17.36,0,0,0-3.447-6.05c-3.1-3.437-7.377-5.087-12.755-5.087h-11.1v38.5h11.1c5.378,0,9.583-1.649,12.755-5.087s4.688-8.112,4.688-14.162A24.458,24.458,0,0,0,363.151,253.556Z" transform="translate(-258.368 -236.919)" fill="#004067"/>
        <path id="Path_22" data-name="Path 22" d="M434.061,282.114a1.149,1.149,0,0,1,1.034,1.238v2.75h-16.2v-2.75a1.034,1.034,0,0,1,.965-1.169,29.567,29.567,0,0,0,3.171-.619L408.76,265.2a5.129,5.129,0,0,0-2.137-1.512,7.571,7.571,0,0,0-1.724-.138h-3.033v17.6c.758.137,2,.412,3.861.824a1.205,1.205,0,0,1,1.1,1.238v2.956H390.216v-2.956a1.149,1.149,0,0,1,1.033-1.238l3.93-.824V241.966q-3.309-.619-3.93-.825a1.215,1.215,0,0,1-1.033-1.307v-2.956H406.83v2.956a1.271,1.271,0,0,1-1.1,1.307c-2.069.413-3.309.687-3.861.825v16.5h2.481a4.491,4.491,0,0,0,3.585-1.375l13.788-15.674c-1.654-.275-2.62-.481-3.032-.55a1.1,1.1,0,0,1-.966-1.238v-2.75H433.3l.138,2.612a1.271,1.271,0,0,1-1.1,1.307c-.413.137-1.379.412-3.171.825L414.482,258.19a9.015,9.015,0,0,1-2.689,2.2,6.9,6.9,0,0,1,3.172,2.474l15.649,18.562c1.93.413,3.1.618,3.516.756Z" transform="translate(-273.304 -236.879)" fill="#004067"/>
      </g>
    </g>
    <path id="Path_23" data-name="Path 23" d="M65.038,267.734l-.006,0,.006,0Z" transform="translate(-0.013 -11.882)" fill="#1a9c8c"/>
    <path id="Path_24" data-name="Path 24" d="M65.116,267.732l-.008,0,.008,0Z" transform="translate(-0.03 -11.882)" fill="#1a9c8c"/>
    <path id="Path_25" data-name="Path 25" d="M64.981,267.734h0Z" transform="translate(0 -11.882)" fill="#1a9c8c"/>
    <path id="s" d="M71.027,303.586a1.8,1.8,0,0,0,.62,1.342,2.254,2.254,0,0,0,1.5.552h12.4a12.109,12.109,0,0,1,.926-4.673H71.027Z" transform="translate(-1.368 -19.357)" fill="#004067"/>
    <path id="s-2" data-name="s" d="M121.018,305.48h33.05a12.124,12.124,0,0,1,.926-4.673h-34.9A12.109,12.109,0,0,1,121.018,305.48Z" transform="translate(-12.457 -19.357)" fill="#004067"/>
    <path id="s-3" data-name="s" d="M201.557,253.9c-3.371-3.371-7.772-6.274-11.988-6.9a99.823,99.823,0,0,0-10.455-.639,1.946,1.946,0,0,0-1.984,1.95v30.726a1.967,1.967,0,0,0,2,1.949h.021a12.2,12.2,0,0,1,12.082,10.539,1.958,1.958,0,0,0,1.959,1.654h8.37a5.059,5.059,0,0,0,5.054-5.048V266.111A17.223,17.223,0,0,0,201.557,253.9Zm1.512,16.4a1.8,1.8,0,0,1-2.152,1.764l-18.058-3.6a1.749,1.749,0,0,1-1.036-.62,1.771,1.771,0,0,1-.409-1.144V253.242a1.948,1.948,0,0,1,1.992-1.95,68.108,68.108,0,0,1,7.142.46c3.092.463,6.327,2.6,8.8,5.067a12.644,12.644,0,0,1,3.719,8.971Z" transform="translate(-25.349 -7.051)" fill="#004067"/>
    <path id="s-4" data-name="s" d="M111.136,297.986c-.163-.231-.327-.463-.5-.681a10.423,10.423,0,0,0-16.286,0c-.178.218-.341.45-.5.681a9.573,9.573,0,0,0-.661,1.144,10.291,10.291,0,0,0-1.106,4.978,10.419,10.419,0,0,0,20.833-.3,10.245,10.245,0,0,0-1.111-4.673A9.368,9.368,0,0,0,111.136,297.986Zm-9.705,11.11a5.391,5.391,0,0,1-1.622-9.966,5.348,5.348,0,0,1,5.368,0,5.393,5.393,0,0,1-3.745,9.966Z" transform="translate(-6.124 -17.68)" fill="#004067"/>
    <path id="s-5" data-name="s" d="M176.9,293.39a10.422,10.422,0,0,0-2.225.2,10.059,10.059,0,0,0-2.411.8,10.411,10.411,0,1,0,4.636-.992Zm-1.466,15.664a5.353,5.353,0,0,1-3.968-3.913,5.4,5.4,0,0,1,7.843-6.063,5.322,5.322,0,0,1,2.653,3.519A5.409,5.409,0,0,1,175.439,309.054Z" transform="translate(-22.898 -17.68)" fill="#004067"/>
    <path id="Path_26" data-name="Path 26" d="M98.2,236.327c3.775-1.179,7.633-2.284,11.513-3.31h0c3.9-1.039,7.83-1.923,11.692-2.747h0c3.889-.833,7.75-1.529,11.518-2.087h0c2.834-.424,5.626-.787,8.365-1.029-.015-.129-.018-.259-.037-.388q-.069-.448-.173-.891a14.617,14.617,0,0,0-8.814-9.842c-.055-.022-.111-.035-.166-.055a13.164,13.164,0,0,0-7.78-.413,14.591,14.591,0,0,0-7.066,4.094,1.87,1.87,0,0,1-2.705,0,14.6,14.6,0,0,0-7.064-4.1,13.166,13.166,0,0,0-7.792.413c-.051.019-.1.032-.155.051a14.79,14.79,0,0,0-8.506,8.745q-.134.395-.24.8a10.612,10.612,0,0,0,.152,6.079c.161.489.354,1.028.574,1.608.188.5.4,1.029.625,1.582q.2.489.416,1,.182.433.376.883l.071.163c.107.247.214.5.325.748l.123.277q2.343-.813,4.741-1.583Z" transform="translate(-5.75 0)" fill="#004067"/>
    <g id="Group_4" data-name="Group 4" transform="translate(69.659 227.414)">
      <path id="Path_27" data-name="Path 27" d="M149.007,243.908l-.034.017a47.737,47.737,0,0,1-6.081,2.444h0q-1.106.376-2.223.715c-.553.167-1.172.4-1.889.591h0c-.039.009-.182.056-.374.107a3.141,3.141,0,0,1-.793.111,2.213,2.213,0,0,1-.777-.135,2,2,0,0,1-1.3-1.891,2.247,2.247,0,0,1,.662-1.581h0a3.556,3.556,0,0,1,.832-.6c.248-.133.461-.224.61-.293h0c.42-.194.8-.347,1.13-.5.741-.337,1.471-.664,2.18-1a55.962,55.962,0,0,0,5.04-2.7c-.358,0-.725.006-1.1.016-1.471.048-3.037.18-4.66.361-1.7.2-3.455.44-5.251.717l-.048.115c-.065.156-.128.307-.2.467-.081.189-.166.385-.249.579-.067.156-.132.31-.2.47s-.149.337-.223.505c-.086.2-.17.389-.259.589l-.19.422c-.1.232-.207.462-.313.7-.07.156-.145.317-.217.475-.1.224-.2.447-.308.674-.073.159-.148.32-.221.479-.106.229-.211.457-.32.689l-.251.536c-.1.214-.2.429-.3.645l-.309.65-.255.537-.293.612c-.1.2-.19.4-.286.6s-.192.4-.289.6l-.283.586c-.123.253-.246.5-.368.756q-.1.212-.207.425l-.416.848c-.051.105-.1.211-.155.316q-.276.561-.55,1.111l-.01.021c-2.844,5.738-5.333,10.494-5.547,10.9l0,.005-.009.018a4.451,4.451,0,0,1-.86,1.105c-.031.029-.066.053-.1.082a4.94,4.94,0,0,1-.443.357c-.061.043-.127.08-.19.121-.133.085-.268.168-.409.241-.085.044-.174.082-.262.122-.128.058-.257.113-.39.161-.1.037-.207.068-.313.1-.128.038-.258.072-.39.1-.112.025-.226.045-.341.063q-.2.031-.4.049c-.117.011-.235.018-.353.022-.06,0-.117.011-.176.011-.155,0-.31-.006-.467-.018h0a5.49,5.49,0,0,1-1.347-.271,5.017,5.017,0,0,1-.6-.251,4.42,4.42,0,0,1-1.033-.707,4.042,4.042,0,0,1-.415-.447,3.846,3.846,0,0,1-.338-.5,3.788,3.788,0,0,1-.255-.554l-.1-.276q-.517-1.426-1.005-2.712a1.072,1.072,0,0,0-2,0q-.49,1.288-1.007,2.712l-.1.275a3.827,3.827,0,0,1-.255.555,4.263,4.263,0,0,1-2.391,1.907,5.315,5.315,0,0,1-.652.176,5.87,5.87,0,0,1-.694.1q-.235.017-.467.017c-.06,0-.117-.009-.176-.011-.119,0-.236-.011-.354-.022q-.2-.017-.4-.049c-.115-.019-.229-.039-.341-.063-.132-.029-.262-.063-.389-.1-.105-.031-.211-.062-.313-.1-.133-.048-.262-.1-.391-.161-.087-.039-.176-.077-.262-.121-.142-.074-.276-.156-.409-.242-.063-.04-.128-.077-.19-.121a4.794,4.794,0,0,1-.443-.358c-.032-.028-.067-.053-.1-.082a4.452,4.452,0,0,1-.86-1.105l-.009-.018,0-.005c-.264-.505-4-7.656-7.585-15.089-2.359.747-4.668,1.516-6.885,2.324-3.091,1.137-6.049,2.266-8.618,3.513h.081c1.022,0,2.015-.03,2.969-.074,2.356-.118,4.427-.265,6.121-.419h0l3.99-.371.641-.067H91a2.418,2.418,0,0,1,.255-.014,2.4,2.4,0,0,1,.511,4.737h0l-.6.129-.012,0c-.9.187-2.265.491-4.018.8h0c-1.72.3-3.852.689-6.353.982h0c-1.241.149-2.584.287-4.032.374h-.009c-.668.036-1.371.069-2.121.069a21.029,21.029,0,0,1-2.793-.176l-.025,0c-.238-.035-.5-.077-.775-.136v17.686a5.2,5.2,0,0,0,5.2,5.2H87.416a12.2,12.2,0,0,1,20.639,0h36.8a12.243,12.243,0,0,1,5.886-4.864V242.95C150.111,243.34,149.517,243.64,149.007,243.908Z" transform="translate(-71.027 -232.846)" fill="url(#linear-gradient)"/>
      <path id="Path_28" data-name="Path 28" d="M97.817,266.241h0Z" transform="translate(-77.082 -238.959)" fill="#fff"/>
      <path id="Path_29" data-name="Path 29" d="M83.631,268.72h0Z" transform="translate(-73.875 -239.519)" fill="#fff"/>
      <path id="Path_30" data-name="Path 30" d="M163.877,248.463h0Z" transform="translate(-92.011 -234.941)" fill="#fff"/>
      <path id="Path_31" data-name="Path 31" d="M159.609,230.992h0Z" transform="translate(-91.047 -230.992)" fill="#fff"/>
      <path id="Path_32" data-name="Path 32" d="M159.606,230.992h0Z" transform="translate(-91.046 -230.992)" fill="#fff"/>
      <path id="Path_33" data-name="Path 33" d="M159.608,230.992h0Z" transform="translate(-91.047 -230.992)" fill="#fff"/>
      <path id="Path_34" data-name="Path 34" d="M115.5,238.8h0Z" transform="translate(-81.078 -232.757)" fill="#fff"/>
      <path id="Path_35" data-name="Path 35" d="M145.417,232.569h0Z" transform="translate(-87.84 -231.348)" fill="#fff"/>
      <path id="Path_36" data-name="Path 36" d="M145.418,232.569h0Z" transform="translate(-87.84 -231.348)" fill="#fff"/>
    </g>
    <g id="Group_5" data-name="Group 5" transform="translate(66.822 228.819)">
      <path id="Path_37" data-name="Path 37" d="M156.478,234.464s-.089.13-.269.369a3.61,3.61,0,0,0,.142-.369Z" transform="translate(-87.442 -233.182)" fill="#004067"/>
      <path id="Path_38" data-name="Path 38" d="M151.943,236.1l-.019-.148-.011-.064-.022-.121a2.817,2.817,0,0,0-1.375-1.731,6.083,6.083,0,0,0-1.424-.6,20.343,20.343,0,0,0-5.1-.618c-1.687-.031-3.4.026-5.145.132-3.495.2-7.121.648-10.846,1.206s-7.546,1.241-11.392,2.064-7.743,1.7-11.594,2.724-7.684,2.115-11.428,3.285c-3.736,1.19-7.375,2.474-10.862,3.83a80.28,80.28,0,0,0-9.863,4.546c-.766.432-1.517.889-2.25,1.389a12.4,12.4,0,0,0-2.133,1.81,4.611,4.611,0,0,0-.957,1.529,2.706,2.706,0,0,0-.118,1.406l.032.131c-.008-.026.076.291.057.2l.034.092c.025.061.048.124.077.181a2.675,2.675,0,0,0,.417.618,3.942,3.942,0,0,0,1.767,1.062,8.617,8.617,0,0,0,1.409.311,23.94,23.94,0,0,0,4.629.1c1.409-.084,2.718-.219,3.943-.366,2.447-.287,4.543-.664,6.265-.969s3.061-.606,3.975-.8l.593-.129a.848.848,0,0,0-.27-1.672l-.647.067-4,.372c-1.718.156-3.81.3-6.187.423-1.188.053-2.45.088-3.758.07a23.793,23.793,0,0,1-3.9-.314c-.121-.025-.235-.053-.346-.083a10.541,10.541,0,0,1,1.462-1.056c.618-.382,1.289-.756,2-1.115a89.577,89.577,0,0,1,9.507-3.942c3.406-1.24,7-2.393,10.675-3.5,3.67-1.127,7.435-2.187,11.224-3.169s7.587-1.95,11.352-2.789,7.481-1.618,11.088-2.289,7.112-1.2,10.42-1.584c1.653-.185,3.262-.32,4.79-.371a19.593,19.593,0,0,1,4.13.207,3.126,3.126,0,0,1,.6.181,1.3,1.3,0,0,1-.207.374,10.246,10.246,0,0,1-2.471,2.03,56.455,56.455,0,0,1-5.279,2.839c-.731.348-1.471.679-2.209,1.015-.371.169-.751.32-1.122.491a3.5,3.5,0,0,0-1,.586.607.607,0,0,0-.1.785c.283.334.853.1,1.2.006.621-.165,1.223-.389,1.837-.576q1.094-.332,2.175-.7a46.392,46.392,0,0,0,5.9-2.367,12,12,0,0,0,3.494-2.4,4.114,4.114,0,0,0,.786-1.206,2.913,2.913,0,0,0,.208-.853c.006-.08.014-.149.014-.239S151.953,236.2,151.943,236.1Z" transform="translate(-67.362 -232.807)" fill="#004067"/>
      <path id="Path_39" data-name="Path 39" d="M71.916,262.527c-.051-.033-.057-.043,0,0Z" transform="translate(-68.382 -239.518)" fill="#004067"/>
      <path id="Path_40" data-name="Path 40" d="M172.476,237.4l.033.119.006.023a.151.151,0,0,1,0-.05c0-.009,0,0,0,0s0,.036,0,.063l0,.007,0,0h0v0a.122.122,0,0,0-.011-.027l-.009-.032,0-.016C172.5,237.5,172.451,237.307,172.476,237.4Z" transform="translate(-91.117 -233.84)" fill="#004067"/>
    </g>
  </g>
</svg>
