<svg xmlns="http://www.w3.org/2000/svg" width="219.077" height="60.11" viewBox="0 0 219.077 60.11">
  <g id="Group_7" data-name="Group 7" transform="translate(-64.973 -215.16)">
    <g id="Group_3" data-name="Group 3" transform="translate(164.552 227.576)">
      <g id="Group_1" data-name="Group 1" transform="translate(0.252 40.361)">
        <path id="Path_1" data-name="Path 1" d="M239.606,314.614v-7.045h2.567a3.855,3.855,0,0,1,1.517.277,3.048,3.048,0,0,1,1.746,1.871,4.2,4.2,0,0,1,.218,1.364,4.114,4.114,0,0,1-.244,1.454,3.113,3.113,0,0,1-.7,1.111,3.163,3.163,0,0,1-1.1.715,3.9,3.9,0,0,1-1.438.253Zm4.666-3.533a2.978,2.978,0,0,0-.139-.932,2.083,2.083,0,0,0-.408-.735,1.818,1.818,0,0,0-.662-.476,2.233,2.233,0,0,0-.89-.169h-1.194v4.644h1.194a2.158,2.158,0,0,0,.9-.179,1.842,1.842,0,0,0,.657-.491,2.187,2.187,0,0,0,.4-.739A2.951,2.951,0,0,0,244.272,311.081Z" transform="translate(-239.606 -307.519)" fill="#fff"/>
        <path id="Path_2" data-name="Path 2" d="M256.972,313.414v1.2h-4.9v-7.045h4.816v1.2H253.44v1.7h2.975v1.111H253.44v1.836Z" transform="translate(-244.943 -307.519)" fill="#fff"/>
        <path id="Path_3" data-name="Path 3" d="M262.527,314.614v-7.045H263.9v5.845h3.6v1.2Z" transform="translate(-249.424 -307.519)" fill="#fff"/>
        <path id="Path_4" data-name="Path 4" d="M272.692,314.614v-7.045h1.373v7.045Z" transform="translate(-253.778 -307.519)" fill="#fff"/>
        <path id="Path_5" data-name="Path 5" d="M277.859,307.569l1.911,5.328,1.891-5.328H283.1l-2.756,7.045h-1.154l-2.776-7.045Z" transform="translate(-255.373 -307.519)" fill="#fff"/>
        <path id="Path_6" data-name="Path 6" d="M294.34,313.414v1.2h-4.9v-7.045h4.815v1.2h-3.442v1.7h2.975v1.111h-2.975v1.836Z" transform="translate(-260.95 -307.519)" fill="#fff"/>
        <path id="Path_7" data-name="Path 7" d="M299.895,314.614v-7.045h3.124a2.011,2.011,0,0,1,.9.2,2.332,2.332,0,0,1,.712.536,2.531,2.531,0,0,1,.468.754,2.267,2.267,0,0,1,.169.848,2.337,2.337,0,0,1-.344,1.245,1.965,1.965,0,0,1-.93.809l1.612,2.65h-1.542l-1.443-2.362h-1.353v2.362Zm1.373-3.563h1.721a.73.73,0,0,0,.353-.089.9.9,0,0,0,.284-.243,1.216,1.216,0,0,0,.189-.362,1.4,1.4,0,0,0,.07-.446,1.272,1.272,0,0,0-.079-.457,1.2,1.2,0,0,0-.214-.362.98.98,0,0,0-.309-.238.8.8,0,0,0-.353-.084h-1.662Z" transform="translate(-265.43 -307.519)" fill="#fff"/>
        <path id="Path_8" data-name="Path 8" d="M311.343,307.569l1.741,3.393,1.771-3.393h1.483l-2.567,4.584v2.461h-1.363v-2.48l-2.557-4.565Z" transform="translate(-269.694 -307.519)" fill="#fff"/>
        <path id="Path_9" data-name="Path 9" d="M326.142,314.614v-7.045h4.746v1.2h-3.373v1.816h2.806V311.7h-2.806v2.917Z" transform="translate(-276.672 -307.519)" fill="#fff"/>
        <path id="Path_10" data-name="Path 10" d="M338.548,314.627a3.214,3.214,0,0,1-1.408-.3,3.436,3.436,0,0,1-1.084-.8,3.714,3.714,0,0,1-.95-2.466,3.528,3.528,0,0,1,.264-1.35,3.725,3.725,0,0,1,.726-1.141,3.463,3.463,0,0,1,1.1-.789,3.277,3.277,0,0,1,1.383-.293,3.113,3.113,0,0,1,1.4.312,3.5,3.5,0,0,1,1.08.819,3.777,3.777,0,0,1,.7,1.151,3.617,3.617,0,0,1,.249,1.31,3.559,3.559,0,0,1-.258,1.344,3.651,3.651,0,0,1-.716,1.131,3.454,3.454,0,0,1-1.095.784A3.274,3.274,0,0,1,338.548,314.627Zm-2.05-3.572a2.836,2.836,0,0,0,.139.883,2.372,2.372,0,0,0,.4.754,2.007,2.007,0,0,0,.647.526,1.869,1.869,0,0,0,.871.2,1.849,1.849,0,0,0,.88-.2,2,2,0,0,0,.647-.541,2.414,2.414,0,0,0,.4-.759,2.818,2.818,0,0,0,.134-.858,2.76,2.76,0,0,0-.144-.883,2.449,2.449,0,0,0-.408-.755,1.962,1.962,0,0,0-.647-.521,2.024,2.024,0,0,0-1.746.01,1.964,1.964,0,0,0-.647.536,2.406,2.406,0,0,0-.393.754A2.809,2.809,0,0,0,336.5,311.054Z" transform="translate(-280.512 -307.482)" fill="#fff"/>
        <path id="Path_11" data-name="Path 11" d="M349.011,314.614v-7.045h3.124a2.01,2.01,0,0,1,.9.2,2.333,2.333,0,0,1,.712.536,2.532,2.532,0,0,1,.468.754,2.267,2.267,0,0,1,.169.848,2.337,2.337,0,0,1-.344,1.245,1.965,1.965,0,0,1-.93.809l1.612,2.65H353.18l-1.443-2.362h-1.353v2.362Zm1.373-3.563h1.721a.73.73,0,0,0,.353-.089.9.9,0,0,0,.284-.243,1.217,1.217,0,0,0,.189-.362,1.4,1.4,0,0,0,.07-.446,1.272,1.272,0,0,0-.08-.457,1.183,1.183,0,0,0-.214-.362.98.98,0,0,0-.309-.238.8.8,0,0,0-.353-.084h-1.662Z" transform="translate(-286.468 -307.519)" fill="#fff"/>
        <path id="Path_12" data-name="Path 12" d="M364.763,314.614v-7.045h2.567a3.855,3.855,0,0,1,1.517.277,3.048,3.048,0,0,1,1.746,1.871,4.206,4.206,0,0,1,.218,1.364,4.115,4.115,0,0,1-.243,1.454,3.107,3.107,0,0,1-.7,1.111,3.153,3.153,0,0,1-1.1.715,3.89,3.89,0,0,1-1.437.253Zm4.667-3.533a3,3,0,0,0-.14-.932,2.093,2.093,0,0,0-.408-.735,1.823,1.823,0,0,0-.662-.476,2.235,2.235,0,0,0-.89-.169h-1.194v4.644h1.194a2.156,2.156,0,0,0,.9-.179,1.832,1.832,0,0,0,.657-.491,2.188,2.188,0,0,0,.4-.739A2.968,2.968,0,0,0,369.43,311.081Z" transform="translate(-293.215 -307.519)" fill="#fff"/>
        <path id="Path_13" data-name="Path 13" d="M382.13,313.414v1.2h-4.9v-7.045h4.816v1.2H378.6v1.7h2.975v1.111H378.6v1.836Z" transform="translate(-298.553 -307.519)" fill="#fff"/>
        <path id="Path_14" data-name="Path 14" d="M389.058,310.1v4.515h-1.373v-7.045h1.064l3.681,4.624v-4.614H393.8v7.035h-1.115Z" transform="translate(-303.034 -307.519)" fill="#fff"/>
        <path id="Path_15" data-name="Path 15" d="M405.8,308.769h-2.259v5.845h-1.363v-5.845H399.92v-1.2h5.88Z" transform="translate(-308.274 -307.519)" fill="#fff"/>
        <path id="Path_16" data-name="Path 16" d="M411.738,314.614v-7.045h1.373v7.045Z" transform="translate(-313.336 -307.519)" fill="#fff"/>
        <path id="Path_17" data-name="Path 17" d="M420.536,309.377a1.686,1.686,0,0,0-.254-.189,3.1,3.1,0,0,0-.448-.233,3.978,3.978,0,0,0-.572-.193,2.49,2.49,0,0,0-.627-.079,1.405,1.405,0,0,0-.845.209.688.688,0,0,0-.278.585.6.6,0,0,0,.1.362.9.9,0,0,0,.3.253,2.59,2.59,0,0,0,.5.2c.2.059.436.123.7.189q.517.139.94.3a2.542,2.542,0,0,1,.716.4,1.645,1.645,0,0,1,.453.571,1.892,1.892,0,0,1,.159.819,2.039,2.039,0,0,1-.214.968,1.8,1.8,0,0,1-.577.65,2.5,2.5,0,0,1-.836.362,4.206,4.206,0,0,1-.99.114,5.33,5.33,0,0,1-1.572-.238,4.878,4.878,0,0,1-1.393-.675l.608-1.181a1.892,1.892,0,0,0,.323.233,4.84,4.84,0,0,0,.552.288,4.257,4.257,0,0,0,.707.243,3.19,3.19,0,0,0,.8.1q1.134,0,1.134-.724a.6.6,0,0,0-.129-.387,1.105,1.105,0,0,0-.369-.278,3.537,3.537,0,0,0-.577-.218c-.226-.066-.477-.139-.756-.218a6.343,6.343,0,0,1-.88-.3,2.3,2.3,0,0,1-.622-.387,1.444,1.444,0,0,1-.373-.516,1.786,1.786,0,0,1-.125-.7,2.188,2.188,0,0,1,.2-.953,1.924,1.924,0,0,1,.552-.695,2.523,2.523,0,0,1,.822-.422,3.413,3.413,0,0,1,1-.143,3.908,3.908,0,0,1,1.373.233,5.135,5.135,0,0,1,1.095.55Z" transform="translate(-315.08 -307.482)" fill="#fff"/>
        <path id="Path_18" data-name="Path 18" d="M432.134,308.769h-2.259v5.845h-1.363v-5.845h-2.258v-1.2h5.88Z" transform="translate(-319.554 -307.519)" fill="#fff"/>
        <path id="Path_19" data-name="Path 19" d="M441.892,309.377a1.708,1.708,0,0,0-.253-.189,3.136,3.136,0,0,0-.448-.233,3.956,3.956,0,0,0-.572-.193,2.49,2.49,0,0,0-.627-.079,1.406,1.406,0,0,0-.846.209.689.689,0,0,0-.278.585.6.6,0,0,0,.1.362.893.893,0,0,0,.3.253,2.589,2.589,0,0,0,.5.2c.2.059.436.123.7.189q.517.139.94.3a2.542,2.542,0,0,1,.716.4,1.645,1.645,0,0,1,.453.571,1.894,1.894,0,0,1,.159.819,2.039,2.039,0,0,1-.214.968,1.8,1.8,0,0,1-.577.65,2.5,2.5,0,0,1-.836.362,4.2,4.2,0,0,1-.99.114,5.33,5.33,0,0,1-1.572-.238,4.88,4.88,0,0,1-1.393-.675l.608-1.181a1.882,1.882,0,0,0,.324.233,4.787,4.787,0,0,0,.552.288,4.256,4.256,0,0,0,.707.243,3.19,3.19,0,0,0,.8.1q1.134,0,1.134-.724a.6.6,0,0,0-.129-.387,1.106,1.106,0,0,0-.369-.278,3.541,3.541,0,0,0-.577-.218c-.226-.066-.477-.139-.756-.218a6.345,6.345,0,0,1-.88-.3,2.3,2.3,0,0,1-.622-.387,1.443,1.443,0,0,1-.373-.516,1.787,1.787,0,0,1-.124-.7,2.187,2.187,0,0,1,.2-.953,1.923,1.923,0,0,1,.552-.695,2.523,2.523,0,0,1,.821-.422,3.414,3.414,0,0,1,1-.143,3.908,3.908,0,0,1,1.373.233,5.122,5.122,0,0,1,1.095.55Z" transform="translate(-324.228 -307.482)" fill="#fff"/>
      </g>
      <g id="Group_2" data-name="Group 2">
        <path id="Path_20" data-name="Path 20" d="M247.057,244.089a21.445,21.445,0,0,1,.153,2.438v23.052c1.833.3,3,.508,3.463.609a.81.81,0,0,1,.661.914v2.234h-12.17V271.1a.891.891,0,0,1,.815-.914l2.851-.609V240.637c-1.629-.3-2.546-.508-2.851-.609a.891.891,0,0,1-.815-.914v-2.234H246.5a2.689,2.689,0,0,1,1.018.152,1.354,1.354,0,0,1,.662.66l12.577,22.443a18.1,18.1,0,0,1,1.171,2.641,22.352,22.352,0,0,1,1.171-2.691l12.322-22.392a1.418,1.418,0,0,1,.713-.66,2.69,2.69,0,0,1,1.018-.152h7.332v2.234a.89.89,0,0,1-.815.914l-2.9.609v28.942q2.444.456,2.9.609a.89.89,0,0,1,.815.914v2.234h-12.22V271.1a.849.849,0,0,1,.764-.914c.509-.1,1.629-.3,3.412-.609v-23a19.532,19.532,0,0,1,.1-2.387l-12.526,22.748a1.9,1.9,0,0,1-1.732,1.168h-.712a2.044,2.044,0,0,1-1.833-1.168l-12.73-22.8Z" transform="translate(-239.165 -236.879)" fill="#fff"/>
        <path id="Path_21" data-name="Path 21" d="M357.635,262.7a16.8,16.8,0,0,1-3.667,5.738c-3.309,3.351-7.587,4.976-12.984,4.976H324.13v-2.132a.939.939,0,0,1,.815-.965l2.851-.559V240.763c-1.629-.3-2.546-.508-2.851-.61a.938.938,0,0,1-.815-.964v-2.133h16.854c5.4,0,9.726,1.625,12.984,4.976,3.311,3.351,4.99,7.769,4.99,13.2A20.511,20.511,0,0,1,357.635,262.7Zm-4.685-13.455a12.823,12.823,0,0,0-2.546-4.469c-2.291-2.539-5.449-3.758-9.42-3.758h-8.2v28.435h8.2c3.972,0,7.078-1.218,9.42-3.757s3.463-5.992,3.463-10.46A18.065,18.065,0,0,0,352.95,249.243Z" transform="translate(-275.559 -236.955)" fill="#fff"/>
        <path id="Path_22" data-name="Path 22" d="M422.6,270.289a.848.848,0,0,1,.764.914v2.031H411.4V271.2a.764.764,0,0,1,.713-.863,21.83,21.83,0,0,0,2.342-.457L403.912,257.8a3.789,3.789,0,0,0-1.578-1.117,5.591,5.591,0,0,0-1.273-.1h-2.24v13c.56.1,1.477.3,2.851.609a.89.89,0,0,1,.815.914v2.183H390.216V271.1a.848.848,0,0,1,.763-.914l2.9-.609V240.637q-2.444-.457-2.9-.609a.9.9,0,0,1-.763-.965v-2.183h12.271v2.183a.939.939,0,0,1-.815.965c-1.528.3-2.444.508-2.851.609v12.186h1.833a3.317,3.317,0,0,0,2.648-1.016l10.184-11.577c-1.222-.2-1.935-.356-2.24-.406a.81.81,0,0,1-.713-.914v-2.031H422.04l.1,1.929a.939.939,0,0,1-.815.965c-.305.1-1.019.3-2.342.609l-10.846,12.236a6.658,6.658,0,0,1-1.986,1.625,5.1,5.1,0,0,1,2.343,1.828l11.559,13.71c1.425.3,2.291.457,2.6.559Z" transform="translate(-303.866 -236.879)" fill="#fff"/>
      </g>
    </g>
    <path id="Path_23" data-name="Path 23" d="M65.037,267.734l0,0,0,0Z" transform="translate(-0.025 -22.519)" fill="#fff"/>
    <path id="Path_24" data-name="Path 24" d="M65.113,267.732l-.006,0,.006,0Z" transform="translate(-0.057 -22.519)" fill="#fff"/>
    <path id="Path_25" data-name="Path 25" d="M64.979,267.734h0Z" transform="translate(0 -22.519)" fill="#fff"/>
    <path id="s" d="M71.027,302.86a1.33,1.33,0,0,0,.458.991,1.665,1.665,0,0,0,1.107.408h9.157a8.944,8.944,0,0,1,.684-3.452H71.027Z" transform="translate(-2.593 -36.686)" fill="#fff"/>
    <path id="s-2" data-name="s" d="M120.776,304.259h24.411a8.954,8.954,0,0,1,.684-3.452H120.092A8.943,8.943,0,0,1,120.776,304.259Z" transform="translate(-23.609 -36.686)" fill="#fff"/>
    <path id="s-3" data-name="s" d="M195.172,251.926c-2.49-2.49-5.74-4.634-8.855-5.1a73.73,73.73,0,0,0-7.722-.472,1.437,1.437,0,0,0-1.465,1.44v22.694a1.453,1.453,0,0,0,1.479,1.439h.015a9.012,9.012,0,0,1,8.924,7.784,1.446,1.446,0,0,0,1.447,1.222h6.182a3.737,3.737,0,0,0,3.733-3.728v-16.26A12.721,12.721,0,0,0,195.172,251.926Zm1.117,12.11a1.326,1.326,0,0,1-1.59,1.3l-13.337-2.662a1.292,1.292,0,0,1-.765-.458,1.308,1.308,0,0,1-.3-.845v-9.933a1.439,1.439,0,0,1,1.471-1.44,50.3,50.3,0,0,1,5.275.34,12.657,12.657,0,0,1,6.5,3.743,9.339,9.339,0,0,1,2.747,6.626Z" transform="translate(-48.041 -13.363)" fill="#fff"/>
    <path id="s-4" data-name="s" d="M106.152,296.784c-.121-.171-.241-.342-.372-.5a7.7,7.7,0,0,0-12.029,0c-.131.161-.252.332-.373.5a7.068,7.068,0,0,0-.488.845,7.6,7.6,0,0,0-.817,3.677,7.7,7.7,0,0,0,15.387-.225,7.567,7.567,0,0,0-.82-3.452A6.916,6.916,0,0,0,106.152,296.784Zm-7.168,8.206a3.982,3.982,0,0,1-1.2-7.361,3.95,3.95,0,0,1,3.964,0,3.983,3.983,0,0,1-2.766,7.361Z" transform="translate(-11.606 -33.508)" fill="#fff"/>
    <path id="s-5" data-name="s" d="M174.129,293.39a7.7,7.7,0,0,0-1.644.144,7.427,7.427,0,0,0-1.781.589,7.689,7.689,0,1,0,3.424-.733Zm-1.083,11.569a3.953,3.953,0,0,1-2.931-2.89,3.991,3.991,0,0,1,5.793-4.478,3.931,3.931,0,0,1,1.96,2.6A4,4,0,0,1,173.047,304.959Z" transform="translate(-43.396 -33.508)" fill="#fff"/>
    <path id="Path_26" data-name="Path 26" d="M96.166,230.794c2.788-.871,5.638-1.687,8.5-2.444h0c2.882-.768,5.784-1.42,8.636-2.029h0c2.873-.615,5.724-1.129,8.507-1.541h0c2.093-.313,4.155-.581,6.179-.76-.011-.1-.013-.191-.027-.286q-.051-.331-.127-.658a10.8,10.8,0,0,0-6.51-7.269c-.041-.016-.082-.026-.123-.041a9.724,9.724,0,0,0-5.746-.305,10.777,10.777,0,0,0-5.219,3.024,1.382,1.382,0,0,1-2,0,10.781,10.781,0,0,0-5.218-3.027,9.725,9.725,0,0,0-5.755.3c-.038.014-.077.023-.114.038a10.923,10.923,0,0,0-6.283,6.459q-.1.292-.177.589a7.838,7.838,0,0,0,.112,4.49c.119.361.261.759.424,1.188.139.367.3.76.462,1.168q.148.361.308.741.135.32.278.652l.053.12c.079.182.158.366.24.553l.091.2q1.73-.6,3.5-1.169Z" transform="translate(-10.898)" fill="#fff"/>
    <g id="Group_4" data-name="Group 4" transform="translate(68.434 224.211)">
      <path id="Path_27" data-name="Path 27" d="M128.623,242.676l-.025.013a35.259,35.259,0,0,1-4.492,1.805h0q-.817.278-1.642.528c-.409.123-.866.295-1.395.437h0c-.029.007-.134.041-.276.079a2.319,2.319,0,0,1-.586.082,1.635,1.635,0,0,1-.574-.1,1.479,1.479,0,0,1-.964-1.4,1.66,1.66,0,0,1,.489-1.167h0a2.627,2.627,0,0,1,.615-.441c.184-.1.341-.166.45-.217h0c.31-.143.593-.256.835-.366.548-.249,1.087-.49,1.61-.739a41.339,41.339,0,0,0,3.723-2c-.264,0-.536,0-.811.011-1.086.035-2.243.133-3.442.267-1.255.147-2.552.325-3.878.529l-.035.085c-.048.115-.094.227-.145.345-.059.139-.122.285-.184.428-.05.115-.1.229-.149.347s-.11.249-.165.373c-.063.145-.126.288-.191.435l-.14.312c-.077.171-.153.341-.232.515-.052.115-.107.234-.16.351-.075.166-.15.33-.228.5l-.164.354c-.078.169-.156.338-.236.509l-.185.4c-.075.158-.149.317-.224.476l-.228.48-.188.4-.217.452-.211.44-.213.441-.209.433-.272.559-.153.314-.308.626-.114.233-.406.821-.007.015c-2.1,4.238-3.939,7.751-4.1,8.054l0,0-.007.013a3.289,3.289,0,0,1-.635.816c-.023.021-.049.039-.071.061a3.645,3.645,0,0,1-.328.264c-.045.032-.094.059-.14.089-.1.063-.2.124-.3.178-.063.033-.129.061-.194.09-.094.043-.19.083-.288.119-.075.027-.153.05-.231.073-.095.028-.19.053-.288.075s-.167.033-.252.046-.2.027-.3.036-.173.013-.261.016c-.044,0-.086.008-.13.008-.114,0-.229,0-.345-.013h0a4.057,4.057,0,0,1-.995-.2,3.711,3.711,0,0,1-.445-.185,3.267,3.267,0,0,1-.763-.522,2.99,2.99,0,0,1-.306-.33,2.837,2.837,0,0,1-.25-.372,2.8,2.8,0,0,1-.188-.409l-.073-.2q-.382-1.053-.743-2a.792.792,0,0,0-1.481,0q-.362.951-.744,2l-.074.2a2.83,2.83,0,0,1-.188.41,3.148,3.148,0,0,1-1.766,1.409,3.918,3.918,0,0,1-.482.13,4.343,4.343,0,0,1-.513.07q-.173.013-.345.013c-.044,0-.086-.007-.13-.008-.088,0-.174-.008-.261-.016s-.2-.021-.3-.036-.169-.029-.252-.047-.193-.047-.288-.075c-.078-.023-.155-.046-.231-.073-.1-.035-.194-.077-.289-.119-.065-.029-.13-.057-.193-.09-.1-.054-.2-.115-.3-.178-.046-.03-.095-.057-.14-.089a3.55,3.55,0,0,1-.327-.264c-.023-.021-.049-.039-.071-.061a3.288,3.288,0,0,1-.635-.816l-.007-.013,0,0c-.195-.373-2.954-5.655-5.6-11.145-1.742.552-3.448,1.12-5.086,1.716-2.283.84-4.468,1.674-6.365,2.595h.06c.755,0,1.489-.022,2.193-.054,1.74-.087,3.27-.2,4.521-.309h0l2.947-.274.473-.049h-.006a1.79,1.79,0,0,1,.188-.01,1.77,1.77,0,0,1,.377,3.5h0l-.44.1-.009,0c-.663.138-1.673.362-2.967.595h0c-1.27.225-2.845.509-4.692.725h0c-.917.11-1.908.212-2.978.276h-.006c-.493.027-1.012.051-1.567.051a15.542,15.542,0,0,1-2.063-.13l-.018,0c-.175-.026-.367-.057-.572-.1v13.063a3.838,3.838,0,0,0,3.837,3.837h8.268a9.01,9.01,0,0,1,15.244,0h27.178a9.042,9.042,0,0,1,4.348-3.592V241.969C129.438,242.257,129,242.478,128.623,242.676Z" transform="translate(-71.027 -234.507)" fill="#fff"/>
      <path id="Path_28" data-name="Path 28" d="M97.817,266.241h0Z" transform="translate(-82.502 -246.09)" fill="#fff"/>
      <path id="Path_29" data-name="Path 29" d="M83.631,268.72h0Z" transform="translate(-76.424 -247.152)" fill="#fff"/>
      <path id="Path_30" data-name="Path 30" d="M163.876,248.463h0Z" transform="translate(-110.796 -238.475)" fill="#fff"/>
      <path id="Path_31" data-name="Path 31" d="M159.608,230.992h0Z" transform="translate(-108.969 -230.992)" fill="#fff"/>
      <path id="Path_32" data-name="Path 32" d="M159.605,230.992h0Z" transform="translate(-108.967 -230.992)" fill="#fff"/>
      <path id="Path_33" data-name="Path 33" d="M159.608,230.992h0Z" transform="translate(-108.969 -230.992)" fill="#fff"/>
      <path id="Path_34" data-name="Path 34" d="M115.5,238.8h0Z" transform="translate(-90.075 -234.336)" fill="#fff"/>
      <path id="Path_35" data-name="Path 35" d="M145.417,232.569h0Z" transform="translate(-102.89 -231.667)" fill="#fff"/>
      <path id="Path_36" data-name="Path 36" d="M145.418,232.569h0Z" transform="translate(-102.891 -231.667)" fill="#fff"/>
    </g>
    <g id="Group_5" data-name="Group 5" transform="translate(66.339 225.248)">
      <path id="Path_37" data-name="Path 37" d="M156.407,234.464s-.066.1-.2.273a2.662,2.662,0,0,0,.1-.273Z" transform="translate(-105.418 -233.517)" fill="#fff"/>
      <path id="Path_38" data-name="Path 38" d="M129.833,235.238l-.014-.109-.008-.047-.016-.089a2.081,2.081,0,0,0-1.016-1.278,4.491,4.491,0,0,0-1.052-.444,15.026,15.026,0,0,0-3.765-.457c-1.246-.023-2.51.019-3.8.1-2.581.149-5.259.479-8.011.891s-5.573.916-8.414,1.525-5.719,1.254-8.564,2.012-5.675,1.562-8.441,2.426c-2.759.879-5.447,1.827-8.023,2.829a59.293,59.293,0,0,0-7.285,3.358c-.566.319-1.12.657-1.662,1.026a9.159,9.159,0,0,0-1.576,1.337,3.406,3.406,0,0,0-.707,1.13,2,2,0,0,0-.087,1.039l.023.1c-.006-.019.056.215.042.15l.025.068c.018.045.035.091.057.134a1.975,1.975,0,0,0,.308.456,2.911,2.911,0,0,0,1.305.784,6.365,6.365,0,0,0,1.041.23,17.681,17.681,0,0,0,3.419.071c1.04-.062,2.008-.162,2.912-.27,1.808-.212,3.355-.491,4.627-.716s2.261-.448,2.936-.588l.438-.095a.627.627,0,0,0-.2-1.235l-.478.05-2.953.274c-1.269.115-2.814.225-4.57.313-.878.039-1.809.065-2.775.051a17.565,17.565,0,0,1-2.881-.232c-.089-.018-.173-.039-.256-.061a7.785,7.785,0,0,1,1.08-.78c.456-.282.952-.559,1.475-.823a66.164,66.164,0,0,1,7.022-2.911c2.516-.916,5.169-1.768,7.884-2.584,2.711-.832,5.491-1.616,8.29-2.341s5.6-1.441,8.385-2.06,5.526-1.195,8.19-1.69,5.253-.884,7.7-1.17c1.221-.137,2.409-.237,3.538-.274a14.471,14.471,0,0,1,3.05.153,2.3,2.3,0,0,1,.444.134.96.96,0,0,1-.153.276,7.567,7.567,0,0,1-1.825,1.5,41.69,41.69,0,0,1-3.9,2.1c-.54.257-1.087.5-1.632.749-.274.125-.555.237-.828.363a2.587,2.587,0,0,0-.741.433.448.448,0,0,0-.07.58c.209.246.63.072.883,0,.458-.122.9-.288,1.357-.425q.808-.245,1.606-.517a34.258,34.258,0,0,0,4.354-1.748,8.865,8.865,0,0,0,2.581-1.77,3.039,3.039,0,0,0,.581-.891,2.153,2.153,0,0,0,.154-.63c0-.059.01-.11.01-.177S129.84,235.312,129.833,235.238Z" transform="translate(-67.362 -232.807)" fill="#fff"/>
      <path id="Path_39" data-name="Path 39" d="M71.906,262.519c-.038-.025-.042-.032,0,0Z" transform="translate(-69.295 -245.525)" fill="#fff"/>
      <path id="Path_40" data-name="Path 40" d="M172.474,237.4l.025.088,0,.017a.113.113,0,0,1,0-.037c0-.007,0,0,0,0s0,.027,0,.047l0,.005,0,0h0a.091.091,0,0,0-.008-.02l-.007-.023,0-.012C172.492,237.465,172.456,237.325,172.474,237.4Z" transform="translate(-112.383 -234.764)" fill="#fff"/>
    </g>
  </g>
</svg>
