<svg xmlns="http://www.w3.org/2000/svg" xmlns:xlink="http://www.w3.org/1999/xlink" width="64.759" height="45.319" viewBox="0 0 64.759 45.319">
  <defs>
    <linearGradient id="linear-gradient" x1="0.5" y1="0.941" x2="0.5" y2="0.26" gradientUnits="objectBoundingBox">
      <stop offset="0" stop-color="#004067"/>
      <stop offset="0.23" stop-color="#005384"/>
      <stop offset="0.559" stop-color="#006aa7"/>
      <stop offset="0.828" stop-color="#0078bd"/>
      <stop offset="1" stop-color="#007ec6"/>
    </linearGradient>
  </defs>
  <g id="Group_192" data-name="Group 192" transform="translate(-109.241 -742.647)">
    <g id="Group_6" data-name="Group 6" transform="translate(109.241 742.647)">
      <path id="Path_23" data-name="Path 23" d="M65.036,267.734h0Z" transform="translate(-65.007 -245.075)" fill="#1a9c8c"/>
      <path id="Path_24" data-name="Path 24" d="M65.112,267.732l0,0,0,0Z" transform="translate(-65.05 -245.074)" fill="#1a9c8c"/>
      <path id="Path_25" data-name="Path 25" d="M64.978,267.734h0Z" transform="translate(-64.973 -245.075)" fill="#1a9c8c"/>
      <path id="s" d="M71.027,302.355a1,1,0,0,0,.345.747,1.255,1.255,0,0,0,.834.307h6.9a6.743,6.743,0,0,1,.516-2.6h-8.6Z" transform="translate(-68.418 -263.894)" fill="#004067"/>
      <path id="s-2" data-name="s" d="M120.608,303.409h18.4a6.751,6.751,0,0,1,.516-2.6H120.092A6.743,6.743,0,0,1,120.608,303.409Z" transform="translate(-96.336 -263.894)" fill="#004067"/>
      <path id="s-3" data-name="s" d="M190.732,250.555a12.961,12.961,0,0,0-6.676-3.843,55.585,55.585,0,0,0-5.822-.356,1.083,1.083,0,0,0-1.1,1.086v17.11a1.1,1.1,0,0,0,1.115,1.085h.012a6.794,6.794,0,0,1,6.728,5.868,1.09,1.09,0,0,0,1.091.921h4.661a2.817,2.817,0,0,0,2.814-2.811V257.357A9.59,9.59,0,0,0,190.732,250.555Zm.842,9.13a1,1,0,0,1-1.2.982l-10.056-2.007a.974.974,0,0,1-.577-.345.986.986,0,0,1-.228-.637V250.19a1.085,1.085,0,0,1,1.109-1.086,37.922,37.922,0,0,1,3.977.256,9.542,9.542,0,0,1,4.9,2.822,7.041,7.041,0,0,1,2.071,5Z" transform="translate(-128.791 -232.911)" fill="#004067"/>
      <path id="s-4" data-name="s" d="M102.686,295.949c-.091-.129-.182-.258-.281-.379a5.8,5.8,0,0,0-9.069,0c-.1.122-.19.25-.281.379a5.331,5.331,0,0,0-.368.637,5.73,5.73,0,0,0-.616,2.772,5.8,5.8,0,0,0,11.6-.17,5.7,5.7,0,0,0-.618-2.6A5.216,5.216,0,0,0,102.686,295.949Zm-5.4,6.186a3,3,0,0,1-.9-5.549,2.978,2.978,0,0,1,2.989,0,3,3,0,0,1-2.086,5.549Z" transform="translate(-80.391 -259.672)" fill="#004067"/>
      <path id="s-5" data-name="s" d="M172.2,293.39a5.8,5.8,0,0,0-1.239.109,5.6,5.6,0,0,0-1.343.444,5.8,5.8,0,1,0,2.582-.552Zm-.816,8.722a2.981,2.981,0,0,1-2.21-2.179,3.009,3.009,0,0,1,4.367-3.376,2.963,2.963,0,0,1,1.477,1.959A3.012,3.012,0,0,1,171.383,302.112Z" transform="translate(-122.622 -259.673)" fill="#004067"/>
      <path id="Path_26" data-name="Path 26" d="M94.751,226.947c2.1-.656,4.25-1.272,6.411-1.843h0c2.173-.579,4.36-1.071,6.511-1.53h0c2.166-.464,4.316-.851,6.414-1.162h0c1.578-.236,3.133-.438,4.658-.573-.009-.072-.01-.144-.021-.216q-.038-.25-.1-.5a8.139,8.139,0,0,0-4.908-5.481c-.031-.012-.062-.019-.093-.031a7.33,7.33,0,0,0-4.332-.23,8.125,8.125,0,0,0-3.935,2.28,1.042,1.042,0,0,1-1.506,0,8.128,8.128,0,0,0-3.934-2.282,7.332,7.332,0,0,0-4.339.23c-.028.01-.058.018-.086.028a8.236,8.236,0,0,0-4.737,4.87q-.074.22-.134.444a5.909,5.909,0,0,0,.084,3.385c.09.272.2.572.32.9.1.277.223.573.348.881q.111.272.232.559.1.241.209.492l.04.091.181.417.069.154q1.3-.453,2.64-.881Z" transform="translate(-79.45 -215.16)" fill="#004067"/>
      <g id="Group_4" data-name="Group 4" transform="translate(2.609 6.823)">
        <path id="Path_27" data-name="Path 27" d="M114.45,241.82l-.019.009a26.58,26.58,0,0,1-3.386,1.361h0q-.616.209-1.238.4c-.308.093-.653.222-1.052.329h0c-.022.005-.1.031-.208.059a1.749,1.749,0,0,1-.442.062,1.233,1.233,0,0,1-.433-.075,1.115,1.115,0,0,1-.727-1.053,1.251,1.251,0,0,1,.368-.88h0a1.979,1.979,0,0,1,.463-.332c.138-.074.257-.125.34-.163h0c.234-.108.447-.193.629-.276.413-.188.819-.37,1.214-.557a31.153,31.153,0,0,0,2.807-1.505c-.2,0-.4,0-.611.009-.819.027-1.691.1-2.6.2-.946.111-1.924.245-2.924.4l-.027.064c-.036.087-.071.171-.109.26-.045.105-.092.215-.139.322l-.112.262c-.04.092-.083.187-.124.281-.048.109-.095.217-.144.328l-.106.235c-.058.129-.115.257-.175.388-.039.087-.081.177-.121.265-.057.125-.113.249-.172.375l-.123.267c-.059.128-.118.255-.178.384l-.14.3-.169.359-.172.362-.142.3-.163.341-.159.331-.161.332-.157.326-.205.421-.116.237-.232.472-.086.176-.306.619-.006.012c-1.583,3.195-2.97,5.844-3.089,6.072l0,0-.005.01a2.48,2.48,0,0,1-.479.615c-.017.016-.037.03-.054.046a2.748,2.748,0,0,1-.247.2c-.034.024-.071.045-.106.067-.074.047-.149.094-.228.134-.047.025-.1.046-.146.068-.071.032-.143.063-.217.09-.057.021-.116.038-.174.055s-.144.04-.217.056-.126.025-.19.035-.149.021-.225.027-.131.01-.2.012c-.033,0-.065.006-.1.006-.086,0-.173,0-.26-.01h0a3.058,3.058,0,0,1-.75-.151,2.8,2.8,0,0,1-.336-.14,2.462,2.462,0,0,1-.575-.394,2.251,2.251,0,0,1-.231-.249,2.143,2.143,0,0,1-.188-.281,2.108,2.108,0,0,1-.142-.309l-.055-.153q-.288-.794-.56-1.51a.6.6,0,0,0-1.116,0q-.273.717-.561,1.51l-.056.153a2.131,2.131,0,0,1-.142.309,2.374,2.374,0,0,1-1.331,1.062,2.957,2.957,0,0,1-.363.1,3.269,3.269,0,0,1-.387.053q-.131.01-.26.009c-.033,0-.065-.005-.1-.006-.066,0-.131-.006-.2-.012s-.15-.016-.225-.027-.128-.022-.19-.035-.146-.035-.217-.056-.117-.035-.174-.055c-.074-.027-.146-.058-.218-.09-.049-.022-.1-.043-.146-.068-.079-.041-.154-.087-.228-.134-.035-.022-.072-.043-.106-.067a2.669,2.669,0,0,1-.247-.2c-.018-.016-.037-.029-.054-.046a2.478,2.478,0,0,1-.479-.615l-.005-.01,0,0c-.147-.281-2.227-4.263-4.224-8.4-1.314.416-2.6.844-3.834,1.294-1.721.633-3.368,1.262-4.8,1.956h.045c.569,0,1.122-.017,1.653-.041,1.312-.065,2.465-.148,3.408-.233h0l2.222-.206.357-.037h0a1.349,1.349,0,0,1,.142-.008,1.334,1.334,0,0,1,.284,2.638h0l-.331.072h-.006c-.5.1-1.261.273-2.237.448h0c-.958.169-2.145.384-3.538.547h0c-.691.083-1.439.16-2.245.208h0c-.372.02-.763.038-1.181.038a11.715,11.715,0,0,1-1.555-.1l-.014,0c-.132-.019-.277-.043-.431-.076v9.849a2.893,2.893,0,0,0,2.893,2.893h6.233a6.792,6.792,0,0,1,11.493,0h20.49a6.817,6.817,0,0,1,3.278-2.708V241.287C115.065,241.5,114.734,241.671,114.45,241.82Z" transform="translate(-71.027 -235.661)" fill="url(#linear-gradient)"/>
        <path id="Path_28" data-name="Path 28" d="M97.817,266.241h0Z" transform="translate(-86.27 -251.049)" fill="#fff"/>
        <path id="Path_29" data-name="Path 29" d="M83.63,268.72h0Z" transform="translate(-78.197 -252.46)" fill="#fff"/>
        <path id="Path_30" data-name="Path 30" d="M163.875,248.463h0Z" transform="translate(-123.857 -240.933)" fill="#fff"/>
        <path id="Path_31" data-name="Path 31" d="M159.608,230.992h0Z" transform="translate(-121.43 -230.992)" fill="#fff"/>
        <path id="Path_32" data-name="Path 32" d="M159.6,230.992h0Z" transform="translate(-121.427 -230.992)" fill="#fff"/>
        <path id="Path_33" data-name="Path 33" d="M159.608,230.992h0Z" transform="translate(-121.43 -230.992)" fill="#fff"/>
        <path id="Path_34" data-name="Path 34" d="M115.5,238.8h0Z" transform="translate(-96.331 -235.435)" fill="#fff"/>
        <path id="Path_35" data-name="Path 35" d="M145.416,232.569h0Z" transform="translate(-113.354 -231.889)" fill="#fff"/>
        <path id="Path_36" data-name="Path 36" d="M145.418,232.569h0Z" transform="translate(-113.356 -231.889)" fill="#fff"/>
      </g>
      <g id="Group_5" data-name="Group 5" transform="translate(1.029 7.606)">
        <path id="Path_37" data-name="Path 37" d="M156.359,234.464s-.05.072-.15.206a2.018,2.018,0,0,0,.079-.206Z" transform="translate(-117.916 -233.75)" fill="#004067"/>
        <path id="Path_38" data-name="Path 38" d="M114.46,234.64l-.011-.082-.006-.036-.012-.067a1.569,1.569,0,0,0-.766-.964,3.387,3.387,0,0,0-.793-.335,11.328,11.328,0,0,0-2.839-.344c-.939-.017-1.892.015-2.865.074-1.946.112-3.965.361-6.04.671s-4.2.691-6.344,1.149-4.312.946-6.456,1.517-4.279,1.178-6.364,1.829-4.107,1.377-6.049,2.133a44.706,44.706,0,0,0-5.492,2.532c-.427.24-.845.5-1.253.774a6.906,6.906,0,0,0-1.188,1.008,2.568,2.568,0,0,0-.533.852,1.507,1.507,0,0,0-.066.783l.018.073c0-.015.042.162.032.113l.019.051c.014.034.027.069.043.1a1.49,1.49,0,0,0,.232.344,2.195,2.195,0,0,0,.984.591,4.8,4.8,0,0,0,.785.173,13.331,13.331,0,0,0,2.578.053c.784-.047,1.514-.122,2.2-.2,1.363-.16,2.53-.37,3.488-.54s1.7-.337,2.214-.444l.33-.072a.472.472,0,0,0-.15-.931l-.36.038-2.226.207c-.957.087-2.121.169-3.445.236-.662.03-1.364.049-2.092.039a13.248,13.248,0,0,1-2.172-.175c-.067-.014-.131-.03-.193-.046a5.868,5.868,0,0,1,.814-.588c.344-.213.718-.421,1.112-.621a49.88,49.88,0,0,1,5.294-2.2c1.9-.69,3.9-1.333,5.944-1.948s4.14-1.218,6.25-1.765,4.225-1.086,6.321-1.553,4.166-.9,6.174-1.274,3.96-.667,5.8-.882c.921-.1,1.816-.178,2.667-.206a10.91,10.91,0,0,1,2.3.115,1.741,1.741,0,0,1,.334.1.723.723,0,0,1-.115.208,5.706,5.706,0,0,1-1.376,1.131,31.437,31.437,0,0,1-2.94,1.581c-.407.194-.819.378-1.23.565-.207.094-.418.178-.625.274a1.95,1.95,0,0,0-.559.326.338.338,0,0,0-.053.437c.157.186.475.054.666,0,.346-.092.681-.217,1.023-.321q.609-.185,1.211-.39a25.835,25.835,0,0,0,3.283-1.318,6.685,6.685,0,0,0,1.945-1.335,2.291,2.291,0,0,0,.438-.672,1.622,1.622,0,0,0,.116-.475c0-.044.008-.083.008-.133S114.466,234.7,114.46,234.64Z" transform="translate(-67.362 -232.807)" fill="#004067"/>
        <path id="Path_39" data-name="Path 39" d="M71.9,262.514c-.028-.019-.031-.024,0,0Z" transform="translate(-69.93 -249.701)" fill="#004067"/>
        <path id="Path_40" data-name="Path 40" d="M172.473,237.391l.019.066,0,.013a.084.084,0,0,1,0-.028c0-.005,0,0,0,0s0,.02,0,.035v0h0a.068.068,0,0,0-.006-.015l-.005-.018v-.009C172.487,237.443,172.459,237.338,172.473,237.391Z" transform="translate(-127.168 -235.407)" fill="#004067"/>
      </g>
    </g>
  </g>
</svg>
