<svg xmlns="http://www.w3.org/2000/svg" width="15.109" height="24.053" viewBox="0 0 15.109 24.053">
  <g id="Group_141" data-name="Group 141" transform="translate(-310.509 -516.26)">
    <path id="Path_268" data-name="Path 268" d="M327.079,525.774c0-1.546-.106-3.1.023-4.635a5.336,5.336,0,0,1,5.506-4.875,5.411,5.411,0,0,1,5.27,5.358q.05,4.124-.007,8.249a5.392,5.392,0,0,1-4.75,5.314,5.332,5.332,0,0,1-5.936-4.268,25.975,25.975,0,0,1-.142-3.854c-.011-.429,0-.859,0-1.289Zm1.165-.129h0c0,.945-.012,1.89,0,2.835a13.319,13.319,0,0,0,.112,2.5,4.212,4.212,0,0,0,8.325-.953c.016-2.814.01-5.627,0-8.441a4.831,4.831,0,0,0-.119-1.147,4.215,4.215,0,0,0-8.309.889C328.212,522.765,328.244,524.205,328.244,525.644Z" transform="translate(-14.398)" fill="#004067"/>
    <path id="Path_269" data-name="Path 269" d="M318.684,624.99v1.75c.9,0,1.775,0,2.647,0a2.658,2.658,0,0,1,.892.041c.324.122.539.387.385.731-.235.525-.823.427-1.3.424-.771,0-1.542,0-2.312,0h-4.624c-.107,0-.215,0-.322,0-.393-.031-.723-.239-.642-.627.12-.574.834-.557,1.28-.57.669-.019,1.338,0,2.007,0h.736V625c-.426-.083-.847-.152-1.262-.249a7.578,7.578,0,0,1-5.663-7.066c0-.42.03-.812.566-.822s.6.358.616.789a6.377,6.377,0,0,0,12.745.037c.019-.443.067-.854.646-.819.542.033.539.441.535.849a7.577,7.577,0,0,1-6.258,7.161C319.149,624.913,318.939,624.949,318.684,624.99Z" transform="translate(0 -87.632)" fill="#004067"/>
  </g>
</svg>
