<svg xmlns="http://www.w3.org/2000/svg" width="29.486" height="32.91" viewBox="0 0 29.486 32.91">
  <g id="Group_111" data-name="Group 111" transform="translate(-235.406 -367.791)">
    <path id="Path_247" data-name="Path 247" d="M254.455,396.7c-.7,3-2.7,4.454-5.207,3.882a3.9,3.9,0,0,1-3.111-3.077c-.159-.684-.443-.8-1.037-.79-1.959.023-3.917.016-5.876.006-3.134-.016-4.488-1.661-3.5-4.648A10.984,10.984,0,0,1,238.2,388a6.44,6.44,0,0,0,1.706-4.46c.107-1.78,0-3.589.271-5.341.577-3.727,2.926-6.094,6.31-7.518a1.568,1.568,0,0,0,1.083-1.071,2.619,2.619,0,0,1,2.6-1.824,2.865,2.865,0,0,1,2.7,1.875,1.917,1.917,0,0,0,.887.944c4.454,1.888,6.531,5,6.6,9.808.022,1.64.239,3.277.349,4.917a3.525,3.525,0,0,0,1.131,2.222c1.558,1.664,3.012,3.409,3.06,5.877.04,2.071-.9,3.179-2.984,3.243C259.438,396.755,256.966,396.7,254.455,396.7Zm-4.246-1.9c3.709,0,7.418.008,11.126,0,1.6,0,1.974-.459,1.589-2.029a5.32,5.32,0,0,0-.785-1.768c-.63-.893-1.41-1.68-2.066-2.556a4.323,4.323,0,0,1-.986-1.742,55.649,55.649,0,0,1-.6-6.327c-.108-4.121-2.146-7-6.066-8.173-.794-.237-1.265-.533-1.277-1.435-.007-.583-.336-1.179-1.006-1a1.472,1.472,0,0,0-.879,1.025c-.085.838-.471,1.139-1.227,1.384-3.107,1.006-5.39,2.9-5.976,6.276a40.171,40.171,0,0,0-.269,4.511c-.143,2.445-.38,4.778-2.427,6.624a7.585,7.585,0,0,0-1.889,3.432c-.414,1.408.025,1.772,1.511,1.777C242.723,394.8,246.466,394.794,250.209,394.794Zm2.215,1.925h-4.465c.3,1.4,1.015,2.028,2.176,2.048C251.329,398.787,252.078,398.159,252.424,396.719Z" transform="translate(0)" fill="#aeabab"/>
  </g>
</svg>
