<svg xmlns="http://www.w3.org/2000/svg" width="19.471" height="19.447" viewBox="0 0 19.471 19.447">
  <g id="Group_150" data-name="Group 150" transform="translate(-185.948 -754.751)">
    <path id="Path_272" data-name="Path 272" d="M196.877,771.758c.315-.337.6-.662.9-.96a1.917,1.917,0,0,1,2.732-.014c.63.606,1.247,1.227,1.854,1.856a1.82,1.82,0,0,1,.277,2.324A5.678,5.678,0,0,1,200.315,777a4.935,4.935,0,0,1-3.068.179,13.944,13.944,0,0,1-6.456-3.635,15.082,15.082,0,0,1-4.567-7.05,4.617,4.617,0,0,1,.6-4.373,9.546,9.546,0,0,1,1.289-1.308,1.864,1.864,0,0,1,2.518.1q.985.935,1.921,1.919a1.916,1.916,0,0,1-.02,2.666c-.305.321-.628.626-.965.96A17.231,17.231,0,0,0,196.877,771.758Zm1.858,4.264.365-.042a3.719,3.719,0,0,0,2.269-1.456c.363-.388.371-.654,0-1.034q-.833-.859-1.691-1.695c-.379-.37-.678-.361-1.073.02-.375.363-.749.727-1.11,1.1a.714.714,0,0,1-.988.136,18.116,18.116,0,0,1-6.246-6.252.689.689,0,0,1,.117-.95q.595-.576,1.17-1.173a.631.631,0,0,0,.035-.976c-.582-.61-1.182-1.205-1.78-1.8-.225-.224-.523-.359-.786-.145a4.016,4.016,0,0,0-1.643,2.037,5.3,5.3,0,0,0,.492,3.488,16.026,16.026,0,0,0,7.063,7.624A8.362,8.362,0,0,0,198.735,776.022Z" transform="translate(0 -3.137)" fill="#004067"/>
    <path id="Path_273" data-name="Path 273" d="M216.964,764.138v.092c0,.62-.2.921-.628.935s-.654-.282-.665-.9a8.4,8.4,0,0,0-7.438-8.153c-.3-.035-.61-.059-.915-.077-.439-.026-.688-.247-.695-.631a.624.624,0,0,1,.711-.659,9.49,9.49,0,0,1,6.094,2.227A9.649,9.649,0,0,1,216.964,764.138Z" transform="translate(-11.545 0)" fill="#004067"/>
    <path id="Path_274" data-name="Path 274" d="M213.4,769.049c.013.513-.214.818-.608.843s-.659-.255-.7-.781a3.879,3.879,0,0,0-3.11-3.715c-.238-.049-.487-.05-.729-.082a.655.655,0,1,1,.082-1.3,5.193,5.193,0,0,1,5.024,4.6C213.371,768.767,213.387,768.92,213.4,769.049Z" transform="translate(-12.074 -5.172)" fill="#004067"/>
  </g>
</svg>
