<svg xmlns="http://www.w3.org/2000/svg" width="32.547" height="34.104" viewBox="0 0 32.547 34.104">
  <g id="Group_9" data-name="Group 9" transform="translate(-457.284 -673.384)">
    <path id="Path_45" data-name="Path 45" d="M479.017,692.5c.7.207,1.371.384,2.026.6a15.19,15.19,0,0,1,6.281,3.739,8.574,8.574,0,0,1,2.444,4.755,2.957,2.957,0,0,1-1.725,3.448,13.818,13.818,0,0,1-3.879,1.394,37.259,37.259,0,0,1-6.124.868c-1.426.086-2.855.206-4.281.18-2.027-.036-4.055-.156-6.077-.306a26.439,26.439,0,0,1-5.594-.972c-1.017-.3-1.991-.751-2.979-1.147a3.043,3.043,0,0,1-.515-.328,2.878,2.878,0,0,1-1.249-3.133,9.255,9.255,0,0,1,3.844-6,17.591,17.591,0,0,1,6.569-2.995c.081-.02.162-.042.242-.067.021-.007.038-.028.071-.053a10.216,10.216,0,0,1-4.82-8,9.912,9.912,0,0,1,2.936-8,10.289,10.289,0,0,1,14.738,0,9.931,9.931,0,0,1,2.9,8.456A10.207,10.207,0,0,1,479.017,692.5Zm-5.481,12.864.007.1c2.214-.171,4.43-.315,6.64-.52a22.709,22.709,0,0,0,5.034-1.025,19.021,19.021,0,0,0,2.1-.917.648.648,0,0,0,.369-.781,10.653,10.653,0,0,0-.4-1.635,8.514,8.514,0,0,0-3.894-4.1,17.419,17.419,0,0,0-6.123-2.107,22.659,22.659,0,0,0-8.341.168,15.427,15.427,0,0,0-6.883,3.115,6.64,6.64,0,0,0-2.513,3.921c-.2,1.079-.393,1.2.885,1.768a16.618,16.618,0,0,0,2.79.935A44.773,44.773,0,0,0,473.536,705.362Zm8.235-21.626a8.212,8.212,0,1,0-8.237,8.174A8.236,8.236,0,0,0,481.771,683.735Z" fill="#707070"/>
  </g>
</svg>
