<svg xmlns="http://www.w3.org/2000/svg" width="34" height="34" viewBox="0 0 34 34">
  <g id="Group_166" data-name="Group 166" transform="translate(-309 -153)">
    <g id="Group_155" data-name="Group 155" transform="translate(139 -23)">
      <rect id="Rectangle_138" data-name="Rectangle 138" width="34" height="34" rx="17" transform="translate(170 176)" fill="#13ab18"/>
    </g>
    <g id="Group_157" data-name="Group 157" transform="translate(208.066 -421.789)">
      <path id="Path_277" data-name="Path 277" d="M114.533,595.822l4.322-4.325q2.977-2.982,5.955-5.964a1.13,1.13,0,0,1,1.162-.367,1.078,1.078,0,0,1,.809.866,1.169,1.169,0,0,1-.411,1.118q-2.149,2.142-4.291,4.292-3.276,3.278-6.554,6.557a1.137,1.137,0,0,1-1.875-.076c-1.089-1.147-2.226-2.247-3.344-3.367-.3-.3-.612-.6-.907-.913a1.061,1.061,0,1,1,1.514-1.484q1.685,1.672,3.357,3.357C114.357,595.6,114.43,595.7,114.533,595.822Z" transform="translate(0 0)" fill="#fff"/>
    </g>
  </g>
</svg>
