<svg id="Group_107" data-name="Group 107" xmlns="http://www.w3.org/2000/svg" width="33.581" height="33.602" viewBox="0 0 33.581 33.602">
  <path id="Path_240" data-name="Path 240" d="M-1850.4-595.845a2.055,2.055,0,0,0-.527-1.366,2.32,2.32,0,0,0-1.347-.6c-.568-.088-1.138-.115-1.682-.229a1.582,1.582,0,0,1-.393-.144c-.126-.063-.21-.151-.213-.186-.089-.375-.346-.71-.341-1.028a.713.713,0,0,1,.244-.517,16.789,16.789,0,0,0,1.553-1.846,2.746,2.746,0,0,0,.565-1.636,2.732,2.732,0,0,0-.732-1.823c-.464-.524-.965-1.016-1.468-1.5a2.921,2.921,0,0,0-2.024-.92,3.1,3.1,0,0,0-1.924.761c-.549.436-1.07.9-1.625,1.311a.8.8,0,0,1-.428.142l-.1-.012c-.63-.174-.929-.274-1.072-.451s-.191-.484-.255-1.124c-.036-.339-.1-.67-.135-1a2.327,2.327,0,0,0-2.336-2.294c-.5-.029-1-.044-1.5-.044s-1.021.015-1.529.046a2.3,2.3,0,0,0-2.258,1.942,8.576,8.576,0,0,0-.167,1.451v.058a1.774,1.774,0,0,1-.207.965,1.216,1.216,0,0,1-.868.5,2.072,2.072,0,0,1-.372.043.771.771,0,0,1-.568-.238c-.477-.441-.984-.848-1.49-1.248a3.114,3.114,0,0,0-1.928-.768,3.037,3.037,0,0,0-2.081.956c-.451.427-.9.864-1.319,1.32a2.876,2.876,0,0,0-.848,1.964,2.957,2.957,0,0,0,.674,1.807c.441.572.881,1.153,1.379,1.684a.619.619,0,0,1,.2.43c.008.294-.3.591-.4.95a.572.572,0,0,1-.213.254.836.836,0,0,1-.34.158c-.935.144-1.9.181-2.846.324a2.961,2.961,0,0,0-2.6,3.029q0,.349,0,.7c0,.232,0,.465,0,.7a2.882,2.882,0,0,0,2.457,3.054,18.441,18.441,0,0,0,2.777.309.642.642,0,0,1,.64.428,3.911,3.911,0,0,0,.326.8l.024.121a1.128,1.128,0,0,1-.175.548c-.4.587-.9,1.12-1.329,1.709a2.913,2.913,0,0,0-.6,1.73,2.827,2.827,0,0,0,.795,1.925c.491.533,1.01,1.045,1.544,1.535a2.863,2.863,0,0,0,1.943.823,2.99,2.99,0,0,0,1.831-.683c.532-.412,1.056-.834,1.567-1.271.2-.172.362-.314.538-.311a.535.535,0,0,1,.288.1c.252.159.552.219.776.34a.668.668,0,0,1,.38.667,20.438,20.438,0,0,0,.193,2.167,2.815,2.815,0,0,0,2.847,2.586q.448.009.9.008c.321,0,.643,0,.964-.007a2.829,2.829,0,0,0,2.927-2.673c.067-.667.144-1.336.183-2.009.031-.433.2-.6.614-.829a1.64,1.64,0,0,1,.777-.239,1.285,1.285,0,0,1,.927.475,5.589,5.589,0,0,0,1.354,1.072,4.17,4.17,0,0,0,1.76.579h.036a4.257,4.257,0,0,0,2.7-1.537,4.771,4.771,0,0,0,1.442-2.917v-.025l0-.01c-.01-.04-.015-.164-.036-.3a1.131,1.131,0,0,0-.149-.437,17.071,17.071,0,0,0-1.5-2.071,1.5,1.5,0,0,1-.471-.971,1.4,1.4,0,0,1,.21-.686,1.98,1.98,0,0,1,.332-.488.679.679,0,0,1,.5-.172h.065a7.718,7.718,0,0,0,1.275-.161,2.392,2.392,0,0,0,1.351-.61,2.047,2.047,0,0,0,.532-1.361q.062-.927.062-1.86C-1850.345-594.6-1850.365-595.225-1850.4-595.845Zm-5.246,4.277a1.26,1.26,0,0,0-.394.724,9.149,9.149,0,0,1-.729,1.845,1.507,1.507,0,0,0-.164.644,1.236,1.236,0,0,0,.329.81c.615.727,1.193,1.49,1.817,2.219a1.124,1.124,0,0,1,.328.714,1,1,0,0,1-.377.712q-.62.588-1.21,1.208a1,1,0,0,1-.712.375,1.13,1.13,0,0,1-.714-.323c-.711-.6-1.448-1.171-2.153-1.773a1.3,1.3,0,0,0-.853-.354,1.506,1.506,0,0,0-.668.176,18.817,18.817,0,0,1-1.917.788,1.149,1.149,0,0,0-.865,1.083c-.071,1.027-.193,2.052-.287,3.082a1.492,1.492,0,0,1-.359,1,1.444,1.444,0,0,1-1.017.272h-1.162a1.305,1.305,0,0,1-.927-.275,1.414,1.414,0,0,1-.354-.932c-.1-.977-.22-1.95-.283-2.924a1.357,1.357,0,0,0-1.018-1.323c-.72-.25-1.412-.6-2.128-.9a2.1,2.1,0,0,0-.434-.07l-.031-.005-.027.016a4.405,4.405,0,0,0-.66.376q-1.1.861-2.166,1.762a1.139,1.139,0,0,1-.715.323,1,1,0,0,1-.713-.376c-.411-.434-.838-.848-1.261-1.264a.937.937,0,0,1-.338-.662,1.026,1.026,0,0,1,.283-.645c.614-.736,1.188-1.5,1.813-2.218a1.294,1.294,0,0,0,.364-.862,1.6,1.6,0,0,0-.2-.724,12.564,12.564,0,0,1-.728-1.77,1.253,1.253,0,0,0-1.185-.97c-1.158-.092-2.315-.178-3.464-.322a1.726,1.726,0,0,1-1.141-.411,1.838,1.838,0,0,1-.251-1.195v-.027c0-.972.031-1.463.26-1.71s.711-.347,1.686-.459c.845-.1,1.692-.178,2.54-.228a1.537,1.537,0,0,0,1.528-1.114,10.775,10.775,0,0,1,.736-1.683,1.44,1.44,0,0,0,.2-.691,1.357,1.357,0,0,0-.385-.892c-.6-.7-1.17-1.44-1.767-2.156a1.056,1.056,0,0,1-.292-.666,1,1,0,0,1,.365-.708c.428-.414.845-.838,1.263-1.26a.963.963,0,0,1,.677-.338,1.026,1.026,0,0,1,.641.272c.761.621,1.533,1.227,2.281,1.858a1.23,1.23,0,0,0,.805.33,1.468,1.468,0,0,0,.645-.17,16.208,16.208,0,0,1,1.911-.8,1.2,1.2,0,0,0,.9-1.145c.072-.869.207-1.739.277-2.617a.894.894,0,0,1,.224-.584.792.792,0,0,1,.564-.2q.544-.013,1.09-.013.577,0,1.153.012a.784.784,0,0,1,.567.2.921.921,0,0,1,.228.583,27.475,27.475,0,0,0,.323,2.775,1.542,1.542,0,0,0,.732.929,10.534,10.534,0,0,0,2.159.883,1.533,1.533,0,0,0,.408.051,1.579,1.579,0,0,0,.852-.226,29.173,29.173,0,0,0,2.307-1.84,1.077,1.077,0,0,1,.679-.3.993.993,0,0,1,.7.354c.416.423.836.845,1.263,1.26a.966.966,0,0,1,.347.681,1.009,1.009,0,0,1-.27.631c-.607.74-1.195,1.493-1.819,2.212a1.329,1.329,0,0,0-.372.881,1.568,1.568,0,0,0,.192.707,13.058,13.058,0,0,1,.726,1.771,1.346,1.346,0,0,0,1.327,1.014c.738.048,1.476.188,2.227.257a.591.591,0,0,1,.38.135.5.5,0,0,1,.109.37v.036c-.012.465-.019.93-.019,1.4q0,.661.021,1.322v.04a.475.475,0,0,1-.119.369.627.627,0,0,1-.379.132c-.822.081-1.642.178-2.461.254A1.312,1.312,0,0,0-1855.651-591.568Z" transform="translate(1883.926 610.345)" fill="#707070"/>
  <path id="Path_241" data-name="Path 241" d="M-1855.853-590.523a6.329,6.329,0,0,0-6.314-6.357h-.015a6.267,6.267,0,0,0-4.467,1.854,6.353,6.353,0,0,0-1.843,4.5v.01h0a6.3,6.3,0,0,0,6.318,6.324h.028a6.327,6.327,0,0,0,6.293-6.316v-.012Zm-1.935.027a4.448,4.448,0,0,1-4.358,4.36h-.073a4.443,4.443,0,0,1-4.353-4.4v-.039a4.377,4.377,0,0,1,4.406-4.333h.025a4.381,4.381,0,0,1,4.352,4.386Z" transform="translate(1879.968 606.892)" fill="#707070"/>
</svg>
