<svg xmlns="http://www.w3.org/2000/svg" width="33.494" height="27.294" viewBox="0 0 33.494 27.294">
  <g id="Group_111" data-name="Group 111" transform="translate(-13.628 -691.131)">
    <path id="Path_249" data-name="Path 249" d="M47.093,710.584c0,.786.015,1.573,0,2.358a2.612,2.612,0,0,1-3.539,2.527,1.29,1.29,0,0,0-.936.088,14.485,14.485,0,0,1-5.815,1.926c-.235.029-.54.038-.681.183-1.14,1.178-2.548.655-3.84.561-.7-.051-1.015-.754-.99-1.482a1.326,1.326,0,0,1,1.255-1.364c1.178.007,2.45-.452,3.5.525a.76.76,0,0,0,.538.064,13.327,13.327,0,0,0,4.847-1.536.918.918,0,0,0,.538-1.009,53.586,53.586,0,0,1,0-5.606c.036-.6.582-1.164.877-1.754a2.241,2.241,0,0,0,.382-.954c-.262-5.31-4.863-10.335-10.369-11.366a12.986,12.986,0,0,0-15.277,10.7,1.738,1.738,0,0,0,.519,1.872,2.651,2.651,0,0,1,.716,1.723c.093,1.675.054,3.36.025,5.04a2.464,2.464,0,0,1-2.528,2.518,2.46,2.46,0,0,1-2.628-2.417c-.057-1.733-.083-3.474.025-5.2a3.035,3.035,0,0,1,.815-1.77,2.227,2.227,0,0,0,.672-1.379,15.276,15.276,0,0,1,30.312-.556,2.845,2.845,0,0,0,.91,2.127,2.926,2.926,0,0,1,.656,1.752A18.411,18.411,0,0,1,47.093,710.584Z" fill="#004067"/>
  </g>
</svg>
